<svg width="96" height="96" viewBox="0 0 96 96" fill="none" xmlns="http://www.w3.org/2000/svg">
<path d="M19.5001 13.5L14.0791 26.1495C12.7591 29.2305 15.8221 32.37 18.9346 31.125L31.5001 25.5L19.5001 13.5Z" fill="#E62B32"/>
<path d="M10.5 48C10.5 68.6775 27.3225 85.5 48 85.5C68.6775 85.5 85.5 68.6775 85.5 48C85.5 27.3225 68.6775 10.5 48 10.5C40.095 10.5 32.607 12.9315 26.232 17.496L21.6675 12.9315C20.877 12.147 19.7625 11.8305 18.6795 12.087C17.601 12.339 16.746 13.1235 16.395 14.1795L12.258 26.595C11.6655 28.353 12.117 30.2565 13.4295 31.569C14.355 32.5005 15.591 32.9925 16.857 32.9925C17.373 32.9925 17.8935 32.91 18.4035 32.7405L30.819 28.6035C31.8735 28.2525 32.6595 27.396 32.9115 26.319C33.1695 25.2345 32.853 24.1155 32.067 23.331L28.3815 19.6455C34.1595 15.639 40.899 13.5 48 13.5C67.026 13.5 82.5 28.974 82.5 48C82.5 67.026 67.026 82.5 48 82.5C28.974 82.5 13.5 67.026 13.5 48H10.5ZM29.9475 25.4535C29.9655 25.4715 30.018 25.53 29.994 25.629C29.97 25.728 29.8995 25.752 29.871 25.758L17.4555 29.901C16.776 30.123 16.0605 29.9595 15.5505 29.4495C15.0405 28.9395 14.871 28.2255 15.099 27.5445L19.242 15.129C19.248 15.099 19.272 15.03 19.371 15.006C19.389 15 19.407 15 19.4235 15C19.494 15 19.5285 15.0405 19.5465 15.0525L29.9475 25.4535Z" fill="#E62B32"/>
<path d="M48 76.5V79.5C65.367 79.5 79.5 65.367 79.5 48H76.5C76.5 63.7155 63.7155 76.5 48 76.5Z" fill="#E62B32"/>
<path d="M41.5005 36H32.751C32.0595 36 31.5 36.543 31.5 37.2135V39.2415C31.5 39.912 32.0595 40.455 32.7495 40.455L42 40.5V46.206L35.3025 47.6475C33.0675 48.18 31.5 50.0955 31.5 52.293V55.212C31.5 57.8565 33.747 60 36.519 60H45.255C45.942 60 46.5 59.457 46.5 58.788V56.7135C46.5 56.043 45.942 55.5 45.255 55.5H36V52.1925L42.729 50.685C44.9445 50.1465 46.5 48.2055 46.5 45.9795V40.851C46.5 38.172 44.262 36 41.5005 36Z" fill="white"/>
<path d="M63.3 36H61.2C60.537 36 60 36.537 60 37.2V47.3265L55.5 46.1265V37.2C55.5 36.537 54.963 36 54.3 36H52.2C51.537 36 51 36.537 51 37.2V46.1865C51 48.3615 52.4625 50.2635 54.5625 50.8245L60 52.2735V58.8C60 59.463 60.537 60 61.2 60H63.3C63.963 60 64.5 59.463 64.5 58.8V37.2C64.5 36.537 63.963 36 63.3 36Z" fill="white"/>
</svg>
