<svg width="52" height="87" viewBox="0 0 52 87" fill="none" xmlns="http://www.w3.org/2000/svg">
<path d="M4.57764e-05 83.7124C4.57764e-05 82.8541 0.329929 82.0142 0.950699 81.3835L37.2072 44.5875C37.4948 44.2947 37.6524 43.9099 37.6524 43.5V43.4983C37.6524 43.0901 37.4932 42.7036 37.2072 42.4125L0.950699 5.61485C0.027668 4.67458 -0.250214 3.26919 0.238926 2.0445C0.734566 0.801404 1.90298 0 3.21439 0L9.81697 0C10.6701 0 11.4745 0.337961 12.0807 0.95198L50.5862 40.03C51.4979 40.9552 51.9984 42.1866 52 43.4983C52 43.4983 52 43.4983 52 43.5C52 44.8117 51.4979 46.0448 50.5862 46.97L12.0823 86.0463C11.4745 86.662 10.6717 87 9.81859 87H3.21602C1.90298 87 0.736191 86.1986 0.240551 84.9538C0.0780449 84.5523 4.57764e-05 84.129 4.57764e-05 83.7124ZM48.7499 43.4983C48.7499 43.0901 48.5906 42.7036 48.3046 42.4125L9.80072 3.33612L3.21439 3.34615L39.4887 40.03C40.4004 40.9552 40.9009 42.1866 40.9025 43.4983C40.9025 43.4983 40.9025 43.4983 40.9025 43.5C40.9025 44.8117 40.4004 46.0448 39.4887 46.97L3.23227 83.7659L9.81047 83.6538L48.3046 44.5875C48.5906 44.2964 48.7499 43.9082 48.7499 43.4983Z" fill="white"/>
<path d="M6.01595 64.0739L24.8486 44.6846C25.484 44.0305 25.484 42.9697 24.8486 42.3139L6.01595 22.9263C4.99542 21.8756 3.2485 22.6201 3.2485 24.1075L3.2485 62.8927C3.2485 64.3801 4.99542 65.1246 6.01595 64.0739Z" fill="#E62B32"/>
</svg>
