<svg width="70" height="70" viewBox="0 0 70 70" fill="none" xmlns="http://www.w3.org/2000/svg">
<path d="M48.125 50.3125H26.25C25.6463 50.3125 25.1562 49.8225 25.1562 49.2188V47.0312C25.1562 46.4275 25.6463 45.9375 26.25 45.9375H48.125C48.7288 45.9375 49.2188 46.4275 49.2188 47.0312V49.2188C49.2188 49.8225 48.7288 50.3125 48.125 50.3125Z" fill="white"/>
<path d="M54.6875 15.3125H52.5V14.2188C52.5 12.4097 51.0278 10.9375 49.2188 10.9375H35.9833C35.4747 8.44484 33.2664 6.5625 30.625 6.5625C27.9836 6.5625 25.7753 8.44484 25.2667 10.9375H15.3125C13.5034 10.9375 12.0312 12.4097 12.0312 14.2188V53.5938C12.0312 55.4028 13.5034 56.875 15.3125 56.875H16.4062V60.1562C16.4062 61.9653 17.8784 63.4375 19.6875 63.4375H54.6875C56.4966 63.4375 57.9688 61.9653 57.9688 60.1562V18.5938C57.9688 16.7847 56.4966 15.3125 54.6875 15.3125ZM15.3125 54.6875C14.7088 54.6875 14.2188 54.1975 14.2188 53.5938V14.2188C14.2188 13.615 14.7088 13.125 15.3125 13.125H25.1562V15.3125H19.6875C17.8784 15.3125 16.4062 16.7847 16.4062 18.5938V54.6875H15.3125ZM55.7812 60.1562C55.7812 60.76 55.2912 61.25 54.6875 61.25H19.6875C19.0838 61.25 18.5938 60.76 18.5938 60.1562V18.5938C18.5938 17.99 19.0838 17.5 19.6875 17.5H25.1562V20.7812C25.1562 23.7967 27.6095 26.25 30.625 26.25C33.6405 26.25 36.0938 23.7967 36.0938 20.7812V19.6853C36.0938 17.8762 34.6216 16.4041 32.8125 16.4041C31.0034 16.4041 29.5312 17.8762 29.5312 19.6853V21.875H31.7188V19.6853C31.7188 19.0816 32.2087 18.5916 32.8125 18.5916C33.4163 18.5916 33.9062 19.0816 33.9062 19.6853V20.7812C33.9062 22.5903 32.4341 24.0625 30.625 24.0625C28.8159 24.0625 27.3438 22.5903 27.3438 20.7812V13.125V12.0312C27.3438 10.2222 28.8159 8.75 30.625 8.75C32.4341 8.75 33.9062 10.2222 33.9062 12.0312V13.125H36.0938H49.2188C49.8225 13.125 50.3125 13.615 50.3125 14.2188V15.3125H38.2812V17.5H54.6875C55.2912 17.5 55.7812 17.99 55.7812 18.5938V60.1562Z" fill="#E62B32"/>
<path d="M38.2812 19.6875H49.2188V21.875H38.2812V19.6875Z" fill="white"/>
<path d="M38.2812 24.0625H49.2188V26.25H38.2812V24.0625Z" fill="white"/>
<path d="M25.1562 32.8125H49.2188V35H25.1562V32.8125Z" fill="white"/>
<path d="M25.9062 37.9375H48.4688V38.625H25.9062V37.9375Z" stroke="white" stroke-width="1.5"/>
<path d="M25.9062 42.3125H48.4688V43H25.9062V42.3125Z" stroke="white" stroke-width="1.5"/>
</svg>
