<svg width="96" height="96" viewBox="0 0 96 96" fill="none" xmlns="http://www.w3.org/2000/svg">
<path d="M28.5 64.5C27.7044 64.5 26.9413 64.8161 26.3787 65.3787C25.8161 65.9413 25.5 66.7044 25.5 67.5C25.5 68.2956 25.8161 69.0587 26.3787 69.6213C26.9413 70.1839 27.7044 70.5 28.5 70.5C29.2956 70.5 30.0587 70.1839 30.6213 69.6213C31.1839 69.0587 31.5 68.2956 31.5 67.5C31.5 66.7044 31.1839 65.9413 30.6213 65.3787C30.0587 64.8161 29.2956 64.5 28.5 64.5Z" fill="white"/>
<path d="M70.1205 46.989L66.3645 36.9735C66.1455 36.3885 65.586 36 64.9605 36H62.25C61.836 36 61.5 36.336 61.5 36.75V47.25C61.5 47.664 61.836 48 62.25 48H69.42C69.9435 48 70.305 47.478 70.1205 46.989Z" fill="white"/>
<path d="M70.5 64.5C69.7044 64.5 68.9413 64.8161 68.3787 65.3787C67.8161 65.9413 67.5 66.7044 67.5 67.5C67.5 68.2956 67.8161 69.0587 68.3787 69.6213C68.9413 70.1839 69.7044 70.5 70.5 70.5C71.2956 70.5 72.0587 70.1839 72.6213 69.6213C73.1839 69.0587 73.5 68.2956 73.5 67.5C73.5 66.7044 73.1839 65.9413 72.6213 65.3787C72.0587 64.8161 71.2956 64.5 70.5 64.5Z" fill="white"/>
<path d="M88.5 60V52.5C88.5 50.019 86.481 48 84 48H77.166C76.5165 48 75.9435 47.5875 75.738 46.9695L71.1045 33.0705C70.4925 31.2345 68.7795 30 66.843 30H58.5V24C58.5 21.519 56.481 19.5 54 19.5H15C12.519 19.5 10.5 21.519 10.5 24V31.5H7.5C5.8455 31.5 4.5 32.8455 4.5 34.5V49.5C4.5 51.1545 5.8455 52.5 7.5 52.5H10.5V60C8.8455 60 7.5 61.3455 7.5 63V66C7.5 67.6545 8.8455 69 10.5 69H15H19.635C20.352 73.2495 24.048 76.5 28.5 76.5C32.952 76.5 36.6465 73.2495 37.365 69H52.5H58.5H61.635C62.352 73.2495 66.048 76.5 70.5 76.5C74.952 76.5 78.6465 73.2495 79.365 69H84H88.5C90.1545 69 91.5 67.6545 91.5 66V63C91.5 61.3455 90.1545 60 88.5 60ZM7.5 34.5H45L45.0015 49.5H7.5V34.5ZM28.5 73.5C25.191 73.5 22.5 70.809 22.5 67.5C22.5 64.191 25.191 61.5 28.5 61.5C31.809 61.5 34.5 64.191 34.5 67.5C34.5 70.809 31.809 73.5 28.5 73.5ZM52.5 66H37.365C36.648 61.7505 32.952 58.5 28.5 58.5C24.048 58.5 20.3535 61.7505 19.635 66H15C14.1735 66 13.5 65.328 13.5 64.5V60V52.5H45C46.6545 52.5 48 51.1545 48 49.5V34.5C48 32.8455 46.6545 31.5 45 31.5H13.5V24C13.5 23.172 14.1735 22.5 15 22.5H54C54.8265 22.5 55.5 23.172 55.5 24V66H52.5ZM70.5 73.5C67.191 73.5 64.5 70.809 64.5 67.5C64.5 64.191 67.191 61.5 70.5 61.5C73.809 61.5 76.5 64.191 76.5 67.5C76.5 70.809 73.809 73.5 70.5 73.5ZM79.365 66C78.648 61.7505 74.952 58.5 70.5 58.5C66.048 58.5 62.3535 61.7505 61.635 66H58.5V33H66.843C67.4865 33 68.0565 33.4095 68.259 34.0215L72.8925 47.919C73.506 49.7625 75.2235 51 77.166 51H84C84.8265 51 85.5 51.672 85.5 52.5V60V64.5C85.5 65.328 84.8265 66 84 66H79.365Z" fill="#E62B32"/>
<path d="M61.5 51H67.5V54H61.5V51Z" fill="#E62B32"/>
<path d="M12 46.5H13.5V43.5H16.5V42H13.5V39H17.229L17.2875 37.5H12V46.5Z" fill="white"/>
<path d="M23.5695 42.435C24.6045 42.075 25.122 41.3205 25.122 40.1805C25.122 39.402 24.84 38.619 24.1665 38.181C23.4285 37.6995 22.5105 37.5045 21.6495 37.5C20.433 37.4925 19.2165 37.5 18 37.5V46.5H19.5V42.72L21.18 42.7425C21.555 42.7425 22.125 42.756 22.1925 42.759C22.2825 42.9075 22.5165 43.4055 22.896 44.211L23.898 46.5H25.632L24.354 43.806C24.042 43.161 23.781 42.672 23.5695 42.435ZM21.9525 41.5845C21.8895 41.5845 21.2475 41.5845 20.724 41.5815C20.2005 41.5785 21 41.5785 19.5 41.5785V39C20.475 39 21.486 38.925 22.455 39.018C22.8495 39.0555 23.2635 39.204 23.4855 39.534C23.8065 40.014 23.7225 40.887 23.265 41.259C22.9995 41.475 22.5615 41.5845 21.9525 41.5845Z" fill="white"/>
<path d="M28.5 43.5H31.5V42H28.5V39H31.9125L31.977 37.5H27V46.5H31.989L32.0415 45H28.5V43.5Z" fill="white"/>
<path d="M34.5 43.5H37.5V42H34.5V39H37.9125L37.977 37.5H33V46.5H37.989L38.0415 45H34.5V43.5Z" fill="white"/>
</svg>
