<svg width="70" height="70" viewBox="0 0 70 70" fill="none" xmlns="http://www.w3.org/2000/svg">
<path d="M39.375 43.75C39.375 46.1672 37.4172 48.125 35 48.125C32.5828 48.125 30.625 46.1672 30.625 43.75C30.625 41.3328 32.5828 39.375 35 39.375C35.0656 39.375 35.1313 39.375 35.1969 39.3859C35.0656 39.725 35 40.0859 35 40.4688C35 42.2844 36.4656 43.75 38.2812 43.75C38.6641 43.75 39.025 43.6844 39.3641 43.5531C39.375 43.6187 39.375 43.6844 39.375 43.75Z" fill="#E62B32"/>
<path d="M51.4237 28.4375H51.4062V27.3438C51.4062 25.5347 49.9341 24.0625 48.125 24.0625V19.6875C48.125 12.4502 42.2373 6.5625 35 6.5625C27.7627 6.5625 21.875 12.4502 21.875 19.6875V24.0625C20.0659 24.0625 18.5938 25.5347 18.5938 27.3438V28.4375H18.5762C15.5706 28.4375 13.125 30.8831 13.125 33.8888V53.5938V53.6112V57.9688C13.125 60.9842 15.5783 63.4375 18.5938 63.4375H51.4062C54.4217 63.4375 56.875 60.9842 56.875 57.9688V53.6112V53.5938V33.8888C56.875 30.8831 54.4294 28.4375 51.4237 28.4375ZM49.2188 27.3438V28.4375H40.4688V27.3438C40.4688 26.7411 40.9587 26.25 41.5625 26.25H48.125C48.7287 26.25 49.2188 26.7411 49.2188 27.3438ZM28.4375 24.0625V19.6875C28.4375 16.0683 31.3808 13.125 35 13.125C38.6192 13.125 41.5625 16.0683 41.5625 19.6875V24.0625C39.7534 24.0625 38.2812 25.5347 38.2812 27.3438V28.4375H31.7188V27.3438C31.7188 25.5347 30.2466 24.0625 28.4375 24.0625ZM24.0625 19.6875C24.0625 13.6566 28.9691 8.75 35 8.75C41.0309 8.75 45.9375 13.6566 45.9375 19.6875V24.0625H43.75V19.6875C43.75 14.863 39.8245 10.9375 35 10.9375C30.1755 10.9375 26.25 14.863 26.25 19.6875V24.0625H24.0625V19.6875ZM20.7812 27.3438C20.7812 26.7411 21.2712 26.25 21.875 26.25H28.4375C29.0413 26.25 29.5312 26.7411 29.5312 27.3438V28.4375H20.7812V27.3438ZM18.5762 30.625H51.4227C53.223 30.625 54.6875 32.0895 54.6875 33.8888V48.125H50.3125V50.3125H54.6875V52.5H45.9375V54.6875H54.4906C54.0433 55.9573 52.8445 56.875 51.4237 56.875H18.5762C17.1555 56.875 15.9567 55.9573 15.5094 54.6875H24.0625V52.5H15.3125V50.3125H19.6875V48.125H15.3125V33.8888C15.3125 32.0895 16.777 30.625 18.5762 30.625ZM51.4062 61.25H18.5938C16.7847 61.25 15.3125 59.7778 15.3125 57.9688V57.9502C16.2247 58.6392 17.348 59.0625 18.5762 59.0625H51.4227C52.652 59.0625 53.7742 58.6392 54.6864 57.9502V57.9688C54.6875 59.7778 53.2153 61.25 51.4062 61.25Z" fill="#E62B32"/>
<path d="M35 52.5C39.8245 52.5 43.75 48.5745 43.75 43.75C43.75 38.9255 39.8245 35 35 35C30.1755 35 26.25 38.9255 26.25 43.75C26.25 48.5745 30.1755 52.5 35 52.5ZM35 37.1875C38.6192 37.1875 41.5625 40.1308 41.5625 43.75C41.5625 47.3692 38.6192 50.3125 35 50.3125C31.3808 50.3125 28.4375 47.3692 28.4375 43.75C28.4375 40.1308 31.3808 37.1875 35 37.1875Z" fill="white"/>
</svg>
