<svg width="30" height="30" viewBox="0 0 30 30" fill="none" xmlns="http://www.w3.org/2000/svg">
<path d="M27.1875 17.8125H2.8125C2.03719 17.8125 1.40625 17.1816 1.40625 16.4062V13.5938C1.40625 12.8184 2.03719 12.1875 2.8125 12.1875H27.1875C27.9628 12.1875 28.5938 12.8184 28.5938 13.5938V16.4062C28.5938 17.1816 27.9628 17.8125 27.1875 17.8125ZM2.8125 13.125C2.55375 13.125 2.34375 13.335 2.34375 13.5938V16.4062C2.34375 16.665 2.55375 16.875 2.8125 16.875H27.1875C27.4463 16.875 27.6562 16.665 27.6562 16.4062V13.5938C27.6562 13.335 27.4463 13.125 27.1875 13.125H2.8125Z" fill="white"/>
</svg>
