<svg xmlns="http://www.w3.org/2000/svg" >
<symbol viewBox="0 0 30 30" id="close">
    <path d="M15,3C8.373,3,3,8.373,3,15c0,6.627,5.373,12,12,12s12-5.373,12-12C27,8.373,21.627,3,15,3z M16.414,15 c0,0,3.139,3.139,3.293,3.293c0.391,0.391,0.391,1.024,0,1.414c-0.391,0.391-1.024,0.391-1.414,0C18.139,19.554,15,16.414,15,16.414 s-3.139,3.139-3.293,3.293c-0.391,0.391-1.024,0.391-1.414,0c-0.391-0.391-0.391-1.024,0-1.414C10.446,18.139,13.586,15,13.586,15 s-3.139-3.139-3.293-3.293c-0.391-0.391-0.391-1.024,0-1.414c0.391-0.391,1.024-0.391,1.414,0C11.861,10.446,15,13.586,15,13.586 s3.139-3.139,3.293-3.293c0.391-0.391,1.024-0.391,1.414,0c0.391,0.391,0.391,1.024,0,1.414C19.554,11.861,16.414,15,16.414,15z"/>
</symbol>
<symbol viewBox="0 0 38 36" id="phone">
    <path fill-rule="evenodd" clip-rule="evenodd" d="M9.6 1.6275C8.904 0.0809986 8.172 0.0494991 7.509 0.0224991C6.9675 -9.15024e-07 6.348 0 5.7285 0C5.109 0 4.1025 0.232499 3.252 1.1625C2.4 2.0925 0 4.3395 0 8.9085C0 13.479 3.3285 17.895 3.7935 18.516C4.2585 19.1355 10.2195 28.8135 19.662 32.5365C27.5085 35.631 29.106 35.016 30.8085 34.86C32.511 34.7055 36.3045 32.613 37.0785 30.444C37.8525 28.275 37.8525 26.4165 37.62 26.028C37.3875 25.641 36.768 25.4085 35.8395 24.9435C34.911 24.4785 30.3435 22.2315 29.4915 21.9225C28.6395 21.6135 28.02 21.4575 27.4005 22.3875C26.781 23.316 25.002 25.4085 24.4605 26.028C23.919 26.649 23.376 26.7255 22.4475 26.262C21.519 25.7955 18.5265 24.816 14.9775 21.651C12.216 19.1895 10.3515 16.149 9.81 15.219C9.2685 14.2905 9.7515 13.7865 10.218 13.323C10.635 12.9075 11.1465 12.2385 11.6115 11.6955C12.075 11.1525 12.2295 10.7655 12.54 10.146C12.849 9.525 12.6945 8.9835 12.462 8.5185C12.2295 8.0535 10.425 3.4635 9.6 1.6275Z"/>
</symbol>
<symbol viewBox="0 0 30 30" id="mail">
    <path d="M26.997,13.747c0,4.538-2.205,7.347-5.795,7.347c-1.859,0-3.186-0.807-3.575-2.175h-0.274 c-0.591,1.455-1.715,2.19-3.373,2.19c-2.998,0-4.987-2.42-4.987-6.079c0-3.501,1.917-5.863,4.771-5.863 c1.557,0,2.782,0.749,3.359,2.046h0.274v-1.7h3.315v7.318c0,1.023,0.461,1.628,1.24,1.628c1.268,0,2.076-1.685,2.076-4.365 c0-5.215-3.416-8.557-8.735-8.557c-5.55,0-9.326,3.89-9.326,9.551c0,5.733,3.805,9.321,9.917,9.321 c1.326,0,2.695-0.173,3.445-0.403v2.564C18.291,26.842,16.936,27,15.566,27C8.028,27,2.997,22.203,2.997,15.014 C2.997,7.912,8.042,3,15.336,3C22.284,3,26.997,7.351,26.997,13.747z M12.784,15.13c0,1.873,0.778,2.996,2.09,2.996 c1.326,0,2.133-1.138,2.133-2.996s-0.822-2.996-2.133-2.996S12.784,13.257,12.784,15.13z"/>
</symbol>
<symbol viewBox="0 0 30 30" id="telegram">
    <path d="M10.3157 16.5236L18.2914 11.7189L12.6613 17.5783L17.5996 21.4572C18.4841 21.8463 18.8061 21.0358 18.8061 21.0358L21.0679 9.55096C21.0679 9.55096 21.1063 9.25799 21.0889 9.19939C20.9277 8.65189 20.0446 9.04705 20.045 9.04752L7.1277 14.1508C7.1277 14.1508 6.51645 14.3613 6.56473 14.7499C6.61301 15.1389 7.11176 15.3166 7.11176 15.3166L10.3166 16.5236"/>
    <path d="M15 27.1875C8.27953 27.1875 2.8125 21.72 2.8125 15C2.8125 8.28 8.27953 2.8125 15 2.8125C21.7205 2.8125 27.1875 8.28 27.1875 15C27.1875 21.72 21.7205 27.1875 15 27.1875ZM15 3.75C8.79703 3.75 3.75 8.79703 3.75 15C3.75 21.203 8.79703 26.25 15 26.25C21.203 26.25 26.25 21.203 26.25 15C26.25 8.79703 21.203 3.75 15 3.75Z"/>
</symbol>
<symbol viewBox="0 0 30 30" id="vk">
    <path d="M15 27.1875C8.28 27.1875 2.8125 21.7205 2.8125 15C2.8125 8.27953 8.28 2.8125 15 2.8125C21.72 2.8125 27.1875 8.27953 27.1875 15C27.1875 21.7205 21.72 27.1875 15 27.1875ZM15 3.75C8.79703 3.75 3.75 8.79703 3.75 15C3.75 21.203 8.79703 26.25 15 26.25C21.203 26.25 26.25 21.203 26.25 15C26.25 8.79703 21.203 3.75 15 3.75Z"/>
    <path d="M19.2069 15.4247C19.2069 15.4247 21.0697 12.6956 21.2549 11.8322C21.3172 11.5238 21.1818 11.25 20.8602 11.25C20.8602 11.25 19.7868 11.25 19.2439 11.25C18.8736 11.25 18.7382 11.5116 18.6271 11.7459C18.6271 11.7459 17.7533 13.6584 16.6902 14.8317C16.3489 15.2109 16.2618 15.3506 16.0733 15.3506C15.9214 15.3506 15.9374 15.2494 15.9374 14.9072V11.9091C15.9374 11.4891 15.7161 11.25 15.3707 11.25H12.7799C12.5825 11.25 12.4902 11.4225 12.4902 11.5791C12.4902 11.9742 13.1258 12.1209 13.1258 13.1916V15.3998C13.1258 15.8442 13.07 16.0167 12.8605 16.0167C12.3055 16.0167 10.9696 14.0466 10.2294 11.8748C10.0804 11.4314 9.90457 11.25 9.48551 11.25H7.86926C7.63488 11.25 7.46191 11.4684 7.46191 11.7028C7.46191 12.1345 7.9677 14.1623 9.95426 16.8398C11.2869 18.6412 13.1 19.6303 14.6793 19.6303C15.6416 19.6303 15.9374 19.4845 15.9374 19.0772V17.6953C15.9374 17.3498 16.0114 17.2017 16.2088 17.2017C16.431 17.2017 16.7919 17.2945 17.7079 18.1978C18.7944 19.2342 18.8375 19.6875 19.4296 19.6875H21.2432C21.4283 19.6875 21.6008 19.5797 21.6008 19.2712C21.6008 18.8639 21.0702 18.1256 20.256 17.2617C19.9227 16.8178 19.3799 16.3313 19.2074 16.1091C18.9608 15.8498 19.0344 15.6961 19.2069 15.4247Z"/>
</symbol>
<symbol viewBox="0 0 30 30" id="whatsapp">
    <path d="M2.99951 27.0464L4.77701 20.5556C3.80389 18.8025 3.29107 16.8174 3.29201 14.8031C3.29436 8.26924 8.61232 2.95361 15.1462 2.95361C18.3159 2.95502 21.2939 4.18924 23.5317 6.42893C25.7695 8.66861 27.0014 11.656 27.0005 14.8402C26.9976 21.3905 21.6797 26.7188 15.1462 26.7188C13.26 26.7188 11.362 26.2411 9.64123 25.336L2.99951 27.0464ZM9.76311 24.3366L9.92529 24.4247C11.5523 25.312 13.3556 25.7813 15.1415 25.7813C21.1631 25.7813 26.0601 20.873 26.063 14.8402C26.0639 11.9058 24.9295 9.15424 22.8689 7.09174C20.8083 5.02924 18.0647 3.89252 15.1462 3.89111C9.12936 3.89111 4.23232 8.78627 4.22998 14.8031C4.22904 16.7199 4.73248 18.6061 5.68639 20.2589L5.78436 20.4281L4.33076 25.7353L9.76311 24.3366ZM15.1462 24.8438C13.4184 24.8438 11.6704 24.3469 10.087 23.408L9.88217 23.2589L5.73186 24.3478L6.84842 20.2739L6.73404 20.0925C5.73889 18.51 5.21389 16.6842 5.21482 14.8102C5.2167 9.33986 9.67404 4.88908 15.15 4.88908C17.7947 4.89002 20.288 5.92877 22.1714 7.81361C24.0464 9.69002 25.0786 12.1941 25.0776 14.8631C25.0758 20.3663 20.6203 24.8438 15.1462 24.8438ZM10.5858 22.6135C12.0192 23.4596 13.5942 23.9063 15.1425 23.9063C20.1037 23.9063 24.1383 19.8497 24.1401 14.8631C24.1411 12.4439 23.2064 10.1756 21.5086 8.47643C19.8014 6.7683 17.5434 5.82752 15.15 5.82658C10.1901 5.82658 6.1542 9.85689 6.15232 14.8106C6.15139 16.507 6.6267 18.1603 7.52717 19.5924L7.86232 20.1225L7.06639 23.0283L10.08 22.2375L10.5858 22.6135Z"/>
    <path fill-rule="evenodd" clip-rule="evenodd" d="M12.2437 9.94658C12.0262 9.4633 11.7974 9.45346 11.5902 9.44502C11.421 9.43799 11.2274 9.43799 11.0338 9.43799C10.8402 9.43799 10.5257 9.51064 10.2599 9.80127C9.99365 10.0919 9.24365 10.7941 9.24365 12.2219C9.24365 13.6502 10.2838 15.0302 10.4291 15.2242C10.5744 15.4178 12.4372 18.4422 15.388 19.6056C17.8401 20.5727 18.3393 20.3805 18.8713 20.3317C19.4033 20.2835 20.5888 19.6296 20.8307 18.9517C21.0726 18.2739 21.0726 17.6931 20.9999 17.5717C20.9272 17.4508 20.7337 17.3781 20.4435 17.2328C20.1533 17.0875 18.726 16.3853 18.4597 16.2888C18.1935 16.1922 17.9999 16.1435 17.8063 16.4341C17.6127 16.7242 17.0568 17.3781 16.8876 17.5717C16.7183 17.7658 16.5487 17.7897 16.2585 17.6449C15.9683 17.4991 15.0332 17.193 13.9241 16.2039C13.0612 15.4347 12.4785 14.4846 12.3093 14.1939C12.1401 13.9038 12.291 13.7463 12.4368 13.6014C12.5671 13.4716 12.7269 13.2625 12.8722 13.0928C13.0171 12.9231 13.0654 12.8022 13.1624 12.6086C13.259 12.4146 13.2107 12.2453 13.138 12.1C13.0654 11.9547 12.5015 10.5203 12.2437 9.94658Z"/>
</symbol>
<symbol viewBox="0 0 15 24" id="arrow-right">
    <path d="M0.375 1.85454L12 12L0.375 22.1455C-0.125 22.5818 -0.125 23.2727 0.375 23.6727C0.875 24.1091 1.66667 24.1091 2.125 23.6727L14.625 12.7636C14.875 12.5455 15 12.2545 15 12C15 11.7455 14.875 11.4545 14.625 11.2364L2.125 0.327272C1.625 -0.109091 0.833333 -0.109091 0.375 0.327272C-0.125 0.763636 -0.125 1.41818 0.375 1.85454Z"/>
</symbol>
<symbol viewBox="0 0 15 24" id="arrow-left">
    <path d="M14.625 22.1455L3 12L14.625 1.85455C15.125 1.41818 15.125 0.727273 14.625 0.327273C14.125 -0.109091 13.3333 -0.109091 12.875 0.327273L0.375001 11.2364C0.125001 11.4545 0 11.7455 0 12C0 12.2545 0.125001 12.5455 0.375001 12.7636L12.875 23.6727C13.375 24.1091 14.1667 24.1091 14.625 23.6727C15.125 23.2364 15.125 22.5818 14.625 22.1455Z"/>
</symbol>
<symbol viewBox="0 0 25 25" id="arrow45deg">
    <path d="M24.3708 1.7868C24.3708 0.958369 23.6992 0.286796 22.8708 0.286796L9.3708 0.286795C8.54237 0.286795 7.8708 0.958368 7.8708 1.7868C7.8708 2.61522 8.54237 3.2868 9.3708 3.2868H21.3708V15.2868C21.3708 16.1152 22.0424 16.7868 22.8708 16.7868C23.6992 16.7868 24.3708 16.1152 24.3708 15.2868L24.3708 1.7868ZM2.71825 24.0607L23.9315 2.84746L21.8101 0.726135L0.596933 21.9393L2.71825 24.0607Z"/>
</symbol>
<symbol viewBox="0 0 202 24" id="arrow-long">
    <path d="M201.061 13.0607C201.646 12.4749 201.646 11.5251 201.061 10.9393L191.515 1.3934C190.929 0.807612 189.979 0.807612 189.393 1.3934C188.808 1.97918 188.808 2.92893 189.393 3.51472L197.879 12L189.393 20.4853C188.808 21.0711 188.808 22.0208 189.393 22.6066C189.979 23.1924 190.929 23.1924 191.515 22.6066L201.061 13.0607ZM0 13.5H200V10.5H0V13.5Z"/>
</symbol>
<symbol viewBox="0 0 30 30" id="homepage">
    <path d="M15 2 A 1 1 0 0 0 14.300781 2.2851562L3.3925781 11.207031 A 1 1 0 0 0 3.3554688 11.236328L3.3183594 11.267578L3.3183594 11.269531 A 1 1 0 0 0 3 12 A 1 1 0 0 0 4 13L5 13L5 24C5 25.105 5.895 26 7 26L23 26C24.105 26 25 25.105 25 24L25 13L26 13 A 1 1 0 0 0 27 12 A 1 1 0 0 0 26.681641 11.267578L26.666016 11.255859 A 1 1 0 0 0 26.597656 11.199219L23 8.2558594L23 4C23 3.448 22.552 3 22 3L21 3C20.448 3 20 3.448 20 4L20 5.8027344L15.677734 2.2675781 A 1 1 0 0 0 15 2 z M 12 16L18 16L18 24L12 24L12 16 z"/>
</symbol>
<symbol viewBox="0 0 20 20" id="checkin">
    <path d="M17.987 3.99345C17.8138 3.99861 17.6494 4.071 17.5287 4.19528L7.33335 14.3906L3.13804 10.1953C3.07661 10.1313 3.00303 10.0802 2.92161 10.045C2.84019 10.0098 2.75257 9.99124 2.66387 9.99034C2.57518 9.98944 2.4872 10.0062 2.40508 10.0398C2.32296 10.0733 2.24836 10.1229 2.18564 10.1856C2.12292 10.2483 2.07334 10.3229 2.03982 10.405C2.00629 10.4871 1.98949 10.5751 1.99039 10.6638C1.99129 10.7525 2.00988 10.8401 2.04507 10.9216C2.08026 11.003 2.13135 11.0766 2.19533 11.138L6.86199 15.8047C6.98702 15.9296 7.15657 15.9998 7.33335 15.9998C7.51013 15.9998 7.67967 15.9296 7.8047 15.8047L18.4714 5.13799C18.5677 5.04434 18.6335 4.92378 18.6601 4.7921C18.6868 4.66042 18.673 4.52377 18.6207 4.40004C18.5683 4.27632 18.4798 4.1713 18.3667 4.09875C18.2536 4.02619 18.1213 3.98949 17.987 3.99345Z"/>
</symbol>
</svg>