<svg width="49" height="49" viewBox="0 0 49 49" fill="none" xmlns="http://www.w3.org/2000/svg">
<path d="M18.375 16.3125V18.1875C18.375 18.705 18.795 19.125 19.3125 19.125H25.875V22.875H19.3125C18.795 22.875 18.375 23.295 18.375 23.8125V25.6875C18.375 26.205 18.795 26.625 19.3125 26.625H25.875V30.375H19.3125C18.795 30.375 18.375 30.795 18.375 31.3125V33.1875C18.375 33.705 18.795 34.125 19.3125 34.125H25.875C27.9459 34.125 29.625 32.4459 29.625 30.375V19.125C29.625 17.0541 27.9459 15.375 25.875 15.375H19.3125C18.795 15.375 18.375 15.795 18.375 16.3125Z" fill="white"/>
<path d="M24.375 48.75C10.935 48.75 0 37.8159 0 24.375C0 10.9341 10.935 0 24.375 0C37.815 0 48.75 10.9341 48.75 24.375C48.75 37.8159 37.815 48.75 24.375 48.75ZM24.375 1.875C11.9691 1.875 1.875 11.9691 1.875 24.375C1.875 36.7809 11.9691 46.875 24.375 46.875C36.7809 46.875 46.875 36.7809 46.875 24.375C46.875 11.9691 36.7809 1.875 24.375 1.875Z" fill="white"/>
<path d="M24.375 43.125C14.0363 43.125 5.625 34.7137 5.625 24.375C5.625 14.0363 14.0363 5.625 24.375 5.625C34.7137 5.625 43.125 14.0363 43.125 24.375C43.125 34.7137 34.7137 43.125 24.375 43.125ZM24.375 7.5C15.0703 7.5 7.5 15.0703 7.5 24.375C7.5 33.6797 15.0703 41.25 24.375 41.25C33.6797 41.25 41.25 33.6797 41.25 24.375C41.25 15.0703 33.6797 7.5 24.375 7.5Z" fill="#E62B32"/>
</svg>
