<svg width="70" height="70" viewBox="0 0 70 70" fill="none" xmlns="http://www.w3.org/2000/svg">
<path d="M35 30.625C33.8397 30.625 32.7269 31.0859 31.9064 31.9064C31.0859 32.7269 30.625 33.8397 30.625 35C30.625 36.1603 31.0859 37.2731 31.9064 38.0936C32.7269 38.9141 33.8397 39.375 35 39.375C36.1603 39.375 37.2731 38.9141 38.0936 38.0936C38.9141 37.2731 39.375 36.1603 39.375 35C39.375 33.8397 38.9141 32.7269 38.0936 31.9064C37.2731 31.0859 36.1603 30.625 35 30.625Z" fill="#E62B32"/>
<path d="M35 7.65625C29.2359 7.65625 23.7781 9.43031 19.1286 12.7597L15.7992 9.43031C15.2261 8.85828 14.4123 8.62531 13.6238 8.81344C12.8352 8.99937 12.2106 9.56922 11.9547 10.3392L8.93594 19.3911C8.50828 20.673 8.83641 22.062 9.79125 23.018C10.4705 23.6972 11.3673 24.0592 12.2905 24.0592C12.6667 24.0592 13.0473 23.998 13.4203 23.8744L22.4733 20.8578C23.2422 20.6019 23.8131 19.9763 23.9991 19.1888C24.185 18.3991 23.9542 17.5853 23.3811 17.0133L20.6948 14.3259C24.908 11.4012 29.82 9.84375 35 9.84375C48.8709 9.84375 60.1562 21.128 60.1562 35C60.1562 48.872 48.8709 60.1562 35 60.1562C21.1291 60.1562 9.84375 48.872 9.84375 35H7.65625C7.65625 50.0773 19.9227 62.3438 35 62.3438C50.0773 62.3438 62.3438 50.0773 62.3438 35C62.3438 19.9227 50.0773 7.65625 35 7.65625ZM21.8706 18.6867C21.8531 18.7589 21.8017 18.7764 21.782 18.7841L12.7291 21.8017C12.2281 21.9658 11.7108 21.8455 11.3389 21.4725C10.9681 21.1017 10.8456 20.5822 11.0119 20.0834L14.0295 11.0305C14.035 11.0119 14.0525 10.9594 14.1269 10.9419C14.1389 10.9386 14.1509 10.9375 14.1619 10.9375C14.2133 10.9375 14.2417 10.9659 14.2527 10.9769L21.8356 18.5609C21.8488 18.5741 21.8881 18.6145 21.8706 18.6867Z" fill="#E62B32"/>
<path d="M24.8359 46.7108L31.989 39.5577C32.8541 40.1308 33.8877 40.4688 35.0001 40.4688C38.0156 40.4688 40.4688 38.0155 40.4688 35C40.4688 32.3586 38.5865 30.1503 36.0938 29.6417V20.7812H33.9063V29.6417C31.4137 30.1503 29.5313 32.3586 29.5313 35C29.5313 36.1134 29.8693 37.1459 30.4424 38.0111L23.2893 45.1642L24.8359 46.7108ZM35.0001 31.7188C36.8091 31.7188 38.2813 33.1909 38.2813 35C38.2813 36.8091 36.8091 38.2812 35.0001 38.2812C33.191 38.2812 31.7188 36.8091 31.7188 35C31.7188 33.1909 33.191 31.7188 35.0001 31.7188Z" fill="white"/>
<path d="M35 57.9688C47.6656 57.9688 57.9688 47.6645 57.9688 35H55.7812C55.7812 46.4592 46.4592 55.7812 35 55.7812V57.9688Z" fill="white"/>
</svg>
