<svg width="30" height="30" viewBox="0 0 30 30" fill="none" xmlns="http://www.w3.org/2000/svg">
<path d="M15 27.1875C8.28 27.1875 2.8125 21.7205 2.8125 15C2.8125 8.27953 8.28 2.8125 15 2.8125C21.72 2.8125 27.1875 8.27953 27.1875 15C27.1875 21.7205 21.72 27.1875 15 27.1875ZM15 3.75C8.79703 3.75 3.75 8.79703 3.75 15C3.75 21.203 8.79703 26.25 15 26.25C21.203 26.25 26.25 21.203 26.25 15C26.25 8.79703 21.203 3.75 15 3.75Z" fill="white"/>
<path d="M19.2069 15.4247C19.2069 15.4247 21.0697 12.6956 21.2549 11.8322C21.3172 11.5238 21.1818 11.25 20.8602 11.25C20.8602 11.25 19.7868 11.25 19.2439 11.25C18.8736 11.25 18.7382 11.5116 18.6271 11.7459C18.6271 11.7459 17.7533 13.6584 16.6902 14.8317C16.3489 15.2109 16.2618 15.3506 16.0733 15.3506C15.9214 15.3506 15.9374 15.2494 15.9374 14.9072V11.9091C15.9374 11.4891 15.7161 11.25 15.3707 11.25H12.7799C12.5825 11.25 12.4902 11.4225 12.4902 11.5791C12.4902 11.9742 13.1258 12.1209 13.1258 13.1916V15.3998C13.1258 15.8442 13.07 16.0167 12.8605 16.0167C12.3055 16.0167 10.9696 14.0466 10.2294 11.8748C10.0804 11.4314 9.90457 11.25 9.48551 11.25H7.86926C7.63488 11.25 7.46191 11.4684 7.46191 11.7028C7.46191 12.1345 7.9677 14.1623 9.95426 16.8398C11.2869 18.6412 13.1 19.6303 14.6793 19.6303C15.6416 19.6303 15.9374 19.4845 15.9374 19.0772V17.6953C15.9374 17.3498 16.0114 17.2017 16.2088 17.2017C16.431 17.2017 16.7919 17.2945 17.7079 18.1978C18.7944 19.2342 18.8375 19.6875 19.4296 19.6875H21.2432C21.4283 19.6875 21.6008 19.5797 21.6008 19.2712C21.6008 18.8639 21.0702 18.1256 20.256 17.2617C19.9227 16.8178 19.3799 16.3313 19.2074 16.1091C18.9608 15.8498 19.0344 15.6961 19.2069 15.4247Z" fill="white"/>
</svg>
