<svg width="30" height="30" viewBox="0 0 30 30" fill="none" xmlns="http://www.w3.org/2000/svg">
<path d="M2.99951 27.0464L4.77701 20.5556C3.80389 18.8025 3.29107 16.8174 3.29201 14.8031C3.29436 8.26924 8.61232 2.95361 15.1462 2.95361C18.3159 2.95502 21.2939 4.18924 23.5317 6.42893C25.7695 8.66861 27.0014 11.656 27.0005 14.8402C26.9976 21.3905 21.6797 26.7188 15.1462 26.7188C13.26 26.7188 11.362 26.2411 9.64123 25.336L2.99951 27.0464ZM9.76311 24.3366L9.92529 24.4247C11.5523 25.312 13.3556 25.7813 15.1415 25.7813C21.1631 25.7813 26.0601 20.873 26.063 14.8402C26.0639 11.9058 24.9295 9.15424 22.8689 7.09174C20.8083 5.02924 18.0647 3.89252 15.1462 3.89111C9.12936 3.89111 4.23232 8.78627 4.22998 14.8031C4.22904 16.7199 4.73248 18.6061 5.68639 20.2589L5.78436 20.4281L4.33076 25.7353L9.76311 24.3366ZM15.1462 24.8438C13.4184 24.8438 11.6704 24.3469 10.087 23.408L9.88217 23.2589L5.73186 24.3478L6.84842 20.2739L6.73404 20.0925C5.73889 18.51 5.21389 16.6842 5.21482 14.8102C5.2167 9.33986 9.67404 4.88908 15.15 4.88908C17.7947 4.89002 20.288 5.92877 22.1714 7.81361C24.0464 9.69002 25.0786 12.1941 25.0776 14.8631C25.0758 20.3663 20.6203 24.8438 15.1462 24.8438ZM10.5858 22.6135C12.0192 23.4596 13.5942 23.9063 15.1425 23.9063C20.1037 23.9063 24.1383 19.8497 24.1401 14.8631C24.1411 12.4439 23.2064 10.1756 21.5086 8.47643C19.8014 6.7683 17.5434 5.82752 15.15 5.82658C10.1901 5.82658 6.1542 9.85689 6.15232 14.8106C6.15139 16.507 6.6267 18.1603 7.52717 19.5924L7.86232 20.1225L7.06639 23.0283L10.08 22.2375L10.5858 22.6135Z" fill="white"/>
<path fill-rule="evenodd" clip-rule="evenodd" d="M12.2437 9.94658C12.0262 9.4633 11.7974 9.45346 11.5902 9.44502C11.421 9.43799 11.2274 9.43799 11.0338 9.43799C10.8402 9.43799 10.5257 9.51064 10.2599 9.80127C9.99365 10.0919 9.24365 10.7941 9.24365 12.2219C9.24365 13.6502 10.2838 15.0302 10.4291 15.2242C10.5744 15.4178 12.4372 18.4422 15.388 19.6056C17.8401 20.5727 18.3393 20.3805 18.8713 20.3317C19.4033 20.2835 20.5888 19.6296 20.8307 18.9517C21.0726 18.2739 21.0726 17.6931 20.9999 17.5717C20.9272 17.4508 20.7337 17.3781 20.4435 17.2328C20.1533 17.0875 18.726 16.3853 18.4597 16.2888C18.1935 16.1922 17.9999 16.1435 17.8063 16.4341C17.6127 16.7242 17.0568 17.3781 16.8876 17.5717C16.7183 17.7658 16.5487 17.7897 16.2585 17.6449C15.9683 17.4991 15.0332 17.193 13.9241 16.2039C13.0612 15.4347 12.4785 14.4846 12.3093 14.1939C12.1401 13.9038 12.291 13.7463 12.4368 13.6014C12.5671 13.4716 12.7269 13.2625 12.8722 13.0928C13.0171 12.9231 13.0654 12.8022 13.1624 12.6086C13.259 12.4146 13.2107 12.2453 13.138 12.1C13.0654 11.9547 12.5015 10.5203 12.2437 9.94658Z" fill="white"/>
</svg>
