<svg width="96" height="96" viewBox="0 0 96 96" fill="none" xmlns="http://www.w3.org/2000/svg">
<path d="M24 24C22.8065 24 21.6619 24.4741 20.818 25.318C19.9741 26.1619 19.5 27.3065 19.5 28.5C19.5 29.6935 19.9741 30.8381 20.818 31.682C21.6619 32.5259 22.8065 33 24 33C25.1935 33 26.3381 32.5259 27.182 31.682C28.0259 30.8381 28.5 29.6935 28.5 28.5C28.5 27.3065 28.0259 26.1619 27.182 25.318C26.3381 24.4741 25.1935 24 24 24Z" fill="#E62B32"/>
<path d="M49.5 75C61.08 75 70.5 65.58 70.5 54H67.5C67.5 63.9255 59.4255 72 49.5 72V75Z" fill="#E62B32"/>
<path d="M24 39C29.7885 39 34.5 34.2885 34.5 28.5C34.5 22.7115 29.7885 18 24 18C18.2115 18 13.5 22.7115 13.5 28.5C13.5 34.2885 18.2115 39 24 39ZM24 21C28.1355 21 31.5 24.3645 31.5 28.5C31.5 32.6355 28.1355 36 24 36C19.8645 36 16.5 32.6355 16.5 28.5C16.5 24.3645 19.8645 21 24 21Z" fill="white"/>
<path d="M48 39V48.213C45.42 48.8835 43.5 51.2115 43.5 54C43.5 57.309 46.191 60 49.5 60C52.809 60 55.5 57.309 55.5 54C55.5 51.2115 53.58 48.8835 51 48.213V39H48ZM52.5 54C52.5 55.6545 51.1545 57 49.5 57C47.8455 57 46.5 55.6545 46.5 54C46.5 52.3455 47.8455 51 49.5 51C51.1545 51 52.5 52.3455 52.5 54Z" fill="#E62B32"/>
<path d="M25.5 54C25.5 51.081 26.0175 48.231 27.036 45.531L24.2295 44.4705C23.082 47.511 22.5 50.718 22.5 54C22.5 68.8875 34.6125 81 49.5 81C64.3875 81 76.5 68.8875 76.5 54C76.5 39.1125 64.3875 27 49.5 27C46.359 27 43.2825 27.534 40.356 28.59L41.373 31.4115C43.9725 30.474 46.7085 30 49.5 30C62.733 30 73.5 40.767 73.5 54C73.5 67.233 62.733 78 49.5 78C36.267 78 25.5 67.233 25.5 54Z" fill="white"/>
<path d="M75.786 34.077L80.0775 29.7855C81.2475 28.617 81.2475 26.712 80.0775 25.5435L77.9565 23.4225C76.788 22.254 74.883 22.254 73.7145 23.4225L69.423 27.714C64.2555 23.787 57.9015 21.348 51 21.0375V18H54C55.6545 18 57 16.6545 57 15V12C57 10.3455 55.6545 9 54 9H45C43.3455 9 42 10.3455 42 12V15C42 16.6545 43.3455 18 45 18H48V21.063C44.7465 21.2085 41.556 21.7995 38.5005 22.8795L39.4995 25.707C42.7035 24.5745 46.068 24 49.5 24C66.042 24 79.5 37.458 79.5 54C79.5 70.542 66.042 84 49.5 84C32.958 84 19.5 70.542 19.5 54C19.5 50.568 20.0745 47.2035 21.207 43.9995L18.3795 43.0005C17.133 46.5255 16.5 50.2245 16.5 54C16.5 72.1965 31.3035 87 49.5 87C67.6965 87 82.5 72.1965 82.5 54C82.5 46.521 79.995 39.618 75.786 34.077ZM45 12H54L54.003 15H45V12ZM71.7375 29.6415L75.834 25.545L77.955 27.666L73.8585 31.7625C73.185 31.0245 72.4755 30.315 71.7375 29.6415Z" fill="#E62B32"/>
</svg>
