<svg width="70" height="70" viewBox="0 0 70 70" fill="none" xmlns="http://www.w3.org/2000/svg">
<path d="M45.9375 51.4062H41.5625V31.1719C41.5625 28.4583 39.3542 26.25 36.6406 26.25H24.0625C22.2534 26.25 20.7812 27.7222 20.7812 29.5312V33.9062C20.7812 35.7153 22.2534 37.1875 24.0625 37.1875H28.4375V51.4062H24.0625C22.2534 51.4062 20.7812 52.8784 20.7812 54.6875V59.0625C20.7812 60.8716 22.2534 62.3438 24.0625 62.3438H45.9375C47.7466 62.3438 49.2188 60.8716 49.2188 59.0625V54.6875C49.2188 52.8784 47.7466 51.4062 45.9375 51.4062ZM47.0312 59.0625C47.0312 59.6662 46.5413 60.1562 45.9375 60.1562H24.0625C23.4588 60.1562 22.9688 59.6662 22.9688 59.0625V54.6875C22.9688 54.0837 23.4588 53.5938 24.0625 53.5938H29.5312C30.1361 53.5938 30.625 53.1048 30.625 52.5V36.0938C30.625 35.4889 30.1361 35 29.5312 35H24.0625C23.4588 35 22.9688 34.51 22.9688 33.9062V29.5312C22.9688 28.9275 23.4588 28.4375 24.0625 28.4375H36.6406C38.1489 28.4375 39.375 29.6636 39.375 31.1719V52.5C39.375 53.1048 39.8639 53.5938 40.4688 53.5938H45.9375C46.5413 53.5938 47.0312 54.0837 47.0312 54.6875V59.0625Z" fill="#E62B32"/>
<path d="M35 22.9688C39.2208 22.9688 42.6562 19.5333 42.6562 15.3125C42.6562 11.0917 39.2208 7.65625 35 7.65625C30.7792 7.65625 27.3438 11.0917 27.3438 15.3125C27.3438 19.5333 30.7792 22.9688 35 22.9688ZM35 9.84375C38.0155 9.84375 40.4688 12.297 40.4688 15.3125C40.4688 18.328 38.0155 20.7812 35 20.7812C31.9845 20.7812 29.5312 18.328 29.5312 15.3125C29.5312 12.297 31.9845 9.84375 35 9.84375Z" fill="#E62B32"/>
<path d="M35 18.5938C36.8122 18.5938 38.2812 17.1247 38.2812 15.3125C38.2812 13.5003 36.8122 12.0312 35 12.0312C33.1878 12.0312 31.7188 13.5003 31.7188 15.3125C31.7188 17.1247 33.1878 18.5938 35 18.5938Z" fill="white"/>
<path d="M36.0938 55.7812V32.8125C36.0938 31.6061 35.1127 30.625 33.9062 30.625H25.1562V32.8125H33.9062V55.7812H25.1562V57.9688H43.75V55.7812H36.0938Z" fill="white"/>
</svg>
