<svg width="49" height="49" viewBox="0 0 49 49" fill="none" xmlns="http://www.w3.org/2000/svg">
<path d="M25.9375 30.3125V15.3125C25.9375 14.795 25.5175 14.375 25 14.375H20.3125C19.795 14.375 19.375 14.7941 19.375 15.3125V17.1875C19.375 17.705 19.795 18.125 20.3125 18.125H21.25C21.7675 18.125 22.1875 18.5441 22.1875 19.0625V30.3125C22.1875 30.83 21.7675 31.25 21.25 31.25H20.3125C19.795 31.25 19.375 31.6691 19.375 32.1875V34.0625C19.375 34.58 19.795 35 20.3125 35H27.8125C28.33 35 28.75 34.58 28.75 34.0625V32.1875C28.75 31.67 28.33 31.25 27.8125 31.25H26.875C26.3575 31.25 25.9375 30.83 25.9375 30.3125Z" fill="white"/>
<path d="M24.375 48.75C10.935 48.75 0 37.8159 0 24.375C0 10.9341 10.935 0 24.375 0C37.815 0 48.75 10.9341 48.75 24.375C48.75 37.8159 37.815 48.75 24.375 48.75ZM24.375 1.875C11.9691 1.875 1.875 11.9691 1.875 24.375C1.875 36.7809 11.9691 46.875 24.375 46.875C36.7809 46.875 46.875 36.7809 46.875 24.375C46.875 11.9691 36.7809 1.875 24.375 1.875Z" fill="white"/>
<path d="M24.375 43.125C14.0363 43.125 5.625 34.7137 5.625 24.375C5.625 14.0363 14.0363 5.625 24.375 5.625C34.7137 5.625 43.125 14.0363 43.125 24.375C43.125 34.7137 34.7137 43.125 24.375 43.125ZM24.375 7.5C15.0703 7.5 7.5 15.0703 7.5 24.375C7.5 33.6797 15.0703 41.25 24.375 41.25C33.6797 41.25 41.25 33.6797 41.25 24.375C41.25 15.0703 33.6797 7.5 24.375 7.5Z" fill="#E62B32"/>
</svg>
