<svg width="30" height="30" viewBox="0 0 30 30" fill="none" xmlns="http://www.w3.org/2000/svg">
<path d="M16.4062 27.1875H13.5938C12.8184 27.1875 12.1875 26.5566 12.1875 25.7812V17.8125H4.21875C3.44344 17.8125 2.8125 17.1816 2.8125 16.4062V13.5938C2.8125 12.8184 3.44344 12.1875 4.21875 12.1875H12.1875V4.21875C12.1875 3.44344 12.8184 2.8125 13.5938 2.8125H16.4062C17.1816 2.8125 17.8125 3.44344 17.8125 4.21875V12.1875H25.7812C26.5566 12.1875 27.1875 12.8184 27.1875 13.5938V16.4062C27.1875 17.1816 26.5566 17.8125 25.7812 17.8125H17.8125V25.7812C17.8125 26.5566 17.1816 27.1875 16.4062 27.1875ZM4.21875 13.125C3.96 13.125 3.75 13.335 3.75 13.5938V16.4062C3.75 16.665 3.96 16.875 4.21875 16.875H13.125V25.7812C13.125 26.04 13.335 26.25 13.5938 26.25H16.4062C16.665 26.25 16.875 26.04 16.875 25.7812V16.875H25.7812C26.04 16.875 26.25 16.665 26.25 16.4062V13.5938C26.25 13.335 26.04 13.125 25.7812 13.125H16.875V4.21875C16.875 3.96 16.665 3.75 16.4062 3.75H13.5938C13.335 3.75 13.125 3.96 13.125 4.21875V13.125H4.21875Z" fill="white"/>
</svg>
