<svg width="96" height="96" viewBox="0 0 96 96" fill="none" xmlns="http://www.w3.org/2000/svg">
<path d="M48 87C26.4945 87 9 69.5055 9 48C9 26.4945 26.4945 9 48 9C69.5055 9 87 26.4945 87 48C87 69.5055 69.5055 87 48 87ZM48 12C28.1505 12 12 28.1505 12 48C12 67.8495 28.1505 84 48 84C67.8495 84 84 67.8495 84 48C84 28.1505 67.8495 12 48 12Z" fill="#E62B32"/>
<path d="M48 81C29.8035 81 15 66.1965 15 48C15 29.8035 29.8035 15 48 15C66.1965 15 81 29.8035 81 48C81 66.1965 66.1965 81 48 81ZM48 18C31.458 18 18 31.458 18 48C18 64.542 31.458 78 48 78C64.542 78 78 64.542 78 48C78 31.458 64.542 18 48 18Z" fill="white"/>
<path d="M57.6615 35.9475C55.959 34.074 53.532 33 51.0015 33H42C40.3455 33 39 34.3455 39 36V54H36V57H39V63H42V57H52.5V54H42V51H50.679C55.449 51 59.5245 47.433 59.9595 42.879C60.201 40.344 59.364 37.818 57.6615 35.9475ZM50.679 48H42V36H51.0015C52.689 36 54.306 36.717 55.443 37.965C56.5935 39.2325 57.1365 40.875 56.9745 42.5955C56.6835 45.6255 53.919 48 50.679 48Z" fill="white"/>
</svg>
