<svg width="30" height="30" viewBox="0 0 30 30" fill="none" xmlns="http://www.w3.org/2000/svg">
<path d="M10.3157 16.5236L18.2914 11.7189L12.6613 17.5783L17.5996 21.4572C18.4841 21.8463 18.8061 21.0358 18.8061 21.0358L21.0679 9.55096C21.0679 9.55096 21.1063 9.25799 21.0889 9.19939C20.9277 8.65189 20.0446 9.04705 20.045 9.04752L7.1277 14.1508C7.1277 14.1508 6.51645 14.3613 6.56473 14.7499C6.61301 15.1389 7.11176 15.3166 7.11176 15.3166L10.3166 16.5236" fill="white"/>
<path d="M15 27.1875C8.27953 27.1875 2.8125 21.72 2.8125 15C2.8125 8.28 8.27953 2.8125 15 2.8125C21.7205 2.8125 27.1875 8.28 27.1875 15C27.1875 21.72 21.7205 27.1875 15 27.1875ZM15 3.75C8.79703 3.75 3.75 8.79703 3.75 15C3.75 21.203 8.79703 26.25 15 26.25C21.203 26.25 26.25 21.203 26.25 15C26.25 8.79703 21.203 3.75 15 3.75Z" fill="white"/>
</svg>
