<svg width="49" height="49" viewBox="0 0 49 49" fill="none" xmlns="http://www.w3.org/2000/svg">
<path d="M29.4012 35H21.7316C19.3259 35 17.375 33.1578 17.375 30.8844V28.3756C17.375 26.4875 18.7353 24.8412 20.675 24.3828L26.75 23.105V18.125H18.4691C17.8644 18.125 17.375 17.6581 17.375 17.0825V15.4166C17.375 14.8419 17.8644 14.375 18.4691 14.375H26.1256C28.5416 14.375 30.5 16.2416 30.5 18.5431V22.745C30.5 24.6903 29.1284 26.3862 27.1719 26.8578L21.125 28.1759V31.25H29.4012C30.0078 31.25 30.5 31.7244 30.5 32.3103V33.9406C30.5 34.5256 30.0078 35 29.4012 35Z" fill="white"/>
<path d="M24.375 48.75C10.935 48.75 0 37.8159 0 24.375C0 10.9341 10.935 0 24.375 0C37.815 0 48.75 10.9341 48.75 24.375C48.75 37.8159 37.815 48.75 24.375 48.75ZM24.375 1.875C11.9691 1.875 1.875 11.9691 1.875 24.375C1.875 36.7809 11.9691 46.875 24.375 46.875C36.7809 46.875 46.875 36.7809 46.875 24.375C46.875 11.9691 36.7809 1.875 24.375 1.875Z" fill="white"/>
<path d="M24.375 43.125C14.0363 43.125 5.625 34.7137 5.625 24.375C5.625 14.0363 14.0363 5.625 24.375 5.625C34.7137 5.625 43.125 14.0363 43.125 24.375C43.125 34.7137 34.7137 43.125 24.375 43.125ZM24.375 7.5C15.0703 7.5 7.5 15.0703 7.5 24.375C7.5 33.6797 15.0703 41.25 24.375 41.25C33.6797 41.25 41.25 33.6797 41.25 24.375C41.25 15.0703 33.6797 7.5 24.375 7.5Z" fill="#E62B32"/>
</svg>
