<svg width="96" height="96" viewBox="0 0 96 96" fill="none" xmlns="http://www.w3.org/2000/svg">
<path d="M47.9774 90C47.9714 90 47.9654 90 47.9594 90C47.5214 89.994 47.1074 89.7975 46.8254 89.4615L39.4814 80.67L28.2089 84.4965C27.7979 84.6375 27.3404 84.5895 26.9609 84.366C26.5844 84.1425 26.3234 83.7645 26.2484 83.334L24.2834 72.0465L12.6104 69.72C12.1814 69.6345 11.8109 69.366 11.5949 68.9835C11.3804 68.601 11.3444 68.145 11.4959 67.734L15.4379 56.976L6.48894 49.128C6.15894 48.84 5.97143 48.42 5.97743 47.982C5.98343 47.544 6.17993 47.13 6.51593 46.848L15.3074 39.504L11.4809 28.2315C11.3399 27.8175 11.3879 27.3615 11.6114 26.9835C11.8349 26.607 12.2129 26.346 12.6434 26.271L23.9309 24.306L26.2544 12.6315C26.3399 12.2025 26.6084 11.832 26.9909 11.616C27.3749 11.4015 27.8309 11.3655 28.2404 11.517L38.9984 15.459L46.8464 6.51004C47.1359 6.18004 47.5544 6.00304 47.9924 5.99854C48.4304 6.00454 48.8444 6.20103 49.1264 6.53703L56.4704 15.3285L67.7429 11.502C68.1584 11.3625 68.6129 11.409 68.9909 11.6325C69.3674 11.856 69.6284 12.234 69.7034 12.6645L71.6684 23.952L83.3429 26.2755C83.7719 26.361 84.1424 26.6295 84.3584 27.012C84.5729 27.3945 84.6089 27.8505 84.4574 28.2615L80.5154 39.0195L89.4644 46.8675C89.7944 47.1555 89.9819 47.5755 89.9759 48.0135C89.9699 48.4515 89.7734 48.8655 89.4374 49.1475L80.6459 56.4915L84.4724 67.764C84.6134 68.178 84.5654 68.634 84.3419 69.012C84.1184 69.3885 83.7404 69.6495 83.3099 69.7245L72.0224 71.6895L69.6989 83.364C69.6134 83.793 69.3449 84.1635 68.9624 84.3795C68.5814 84.5955 68.1239 84.6315 67.7129 84.4785L56.9549 80.5365L49.1069 89.4855C48.8204 89.814 48.4094 90 47.9774 90ZM39.9734 77.418C40.4099 77.418 40.8344 77.6085 41.1254 77.9565L48.0059 86.1915L55.3769 77.787C55.7849 77.3205 56.4389 77.151 57.0209 77.3685L67.0994 81.0615L69.2819 70.0965C69.4019 69.489 69.8849 69.018 70.4954 68.9115L81.0704 67.0695L77.4764 56.4825C77.2769 55.8945 77.4599 55.2465 77.9369 54.849L86.1719 47.9685L77.7674 40.5975C77.3009 40.1895 77.1344 39.5355 77.3489 38.9535L81.0419 28.875L70.0769 26.6925C69.4694 26.5725 68.9984 26.0895 68.8919 25.479L67.0499 14.9085L56.4629 18.5025C55.8764 18.6975 55.2284 18.5205 54.8294 18.042L47.9489 9.80703L40.5779 18.2115C40.1699 18.6795 39.5144 18.849 38.9339 18.63L28.8554 14.937L26.6729 25.902C26.5529 26.5095 26.0699 26.9805 25.4594 27.087L14.8844 28.929L18.4784 39.516C18.6779 40.104 18.4949 40.752 18.0179 41.1495L9.78293 48.03L18.1874 55.401C18.6539 55.809 18.8204 56.463 18.6059 57.045L14.9129 67.1235L25.8779 69.306C26.4854 69.426 26.9564 69.909 27.0629 70.5195L28.9049 81.0945L39.4919 77.5005C39.6509 77.445 39.8129 77.418 39.9734 77.418Z" fill="white"/>
<path d="M48 75C33.1125 75 21 62.8875 21 48C21 33.1125 33.1125 21 48 21C62.8875 21 75 33.1125 75 48C75 62.8875 62.8875 75 48 75ZM48 24C34.767 24 24 34.767 24 48C24 61.233 34.767 72 48 72C61.233 72 72 61.233 72 48C72 34.767 61.233 24 48 24Z" fill="white"/>
</svg>
