<svg version="1.2" baseProfile="tiny-ps" xmlns="http://www.w3.org/2000/svg" width="536" height="507"><style>.s0{fill:#e8770a}.s2{fill:#fff}.s3{fill:#1d1d1b}</style><g id="Layer 1"><g id="&lt;Group&gt;"><path id="&lt;Path&gt;" class="s0" d="M197.04 483.51c-9.55 10.71-28.07 16.6-37.56 5.83-4.31-4.89-5.37-11.82-5.56-18.34-.52-17.62 4.09-35.36 13.11-50.51-9.52-8.67-19.04-17.33-28.56-26-15.27 16.87-35.78 28.93-57.95 34.07-7.97 1.85-16.42 2.8-24.26.45-7.83-2.35-14.91-8.64-16.18-16.72-2.26-14.32 12.82-24.72 25.77-31.24 12.74-6.42 25.48-12.83 38.22-19.25a384.424 384.424 0 0 1-21.29-47.53c-21.56 12.16-48.12 15.09-71.81 7.93-3.77-1.14-7.79-2.79-9.65-6.26-1.57-2.93-1.23-6.52-.35-9.73 3.97-14.47 17.59-24.68 32.03-28.78 14.44-4.1 29.76-3.16 44.74-2.18-7.46-1.36-7.82-11.88-6.14-19.26 5.45-23.89 12.5-47.41 21.09-70.36-2.67 7.14-36.52-15.19-39.16-16.65-6.26-3.46-12.67-7.05-17.27-12.52-13.44-15.95 4.33-35.56 20.65-40.24 19.02-5.45 35.64 19.38 54.63 19.44 4.57.01 24.94-24.31 30.02-28.17 12.26-9.34 25.4-16.35 39.07-23.31 14.05-7.16 11.98-11.67 10.71-26.34C189.66 38.43 194.59.51 221.85.39c7.67-.04 13.96 6.03 18.35 12.32 10.24 14.68 15.08 33.05 13.41 50.87 29.92.67 59.75 5.13 88.55 13.25 9.57-14.67 15.1-32.14 27.29-44.71 12.2-12.57 35.35-17.51 46.2-3.76 8.76 11.1 4.64 27.28-.6 40.42a388.433 388.433 0 0 1-21.85 45.88c18.96 12.02 34.7 29.09 45.15 48.96 20.24-13.9 44.32-22.17 68.83-23.62 4.98-.3 10.33-.22 14.47 2.57 5.97 4.02 7.36 12.66 4.89 19.41-2.47 6.75-7.94 11.94-13.58 16.4-14.77 11.68-32.03 20.2-50.29 24.83 7.79 20.8 10.38 43.52 7.49 65.55 28.69-2.37 57.58 18.22 64.72 46.11.72 2.82 1.23 5.88.14 8.58-2.03 5.05-8.39 6.5-13.81 6.96a153.61 153.61 0 0 1-58.84-6.45 434.344 434.344 0 0 1-48.5 53.57c18.86.24 37.23 11.23 46.35 27.74 4.93 8.93 7.06 20.46 1.66 29.11-4.41 7.07-12.88 10.64-21.14 11.8-22.88 3.22-47.07-10.58-55.95-31.91-14.42 5.25-28.83 10.5-43.25 15.75-2.71.99-5.7 2.23-6.81 4.89-1.01 2.4-.12 5.13.77 7.58 3.77 10.41 7.54 21.1 7.54 32.17-.01 11.07-4.54 22.79-14.03 28.5-13.61 8.17-32.24.74-41.71-12-9.47-12.74-12.11-29.14-14.46-44.83.94 6.3-52.49-2.43-57.92-6.73-6.41 13.84-7.14 31.87-17.87 43.91z"/><path d="M428.22 273.54c-3.56 54.66-40.89 99.31-91.81 121.23-45.44 19.57-115.48 22.55-157.84-6.85C148.72 367.2 127 338.49 115.99 305c-8.18-24.89-8.98-52.03-2.71-77.41 3.97-16.04 10.6-31.34 19.36-45.47 12.57-20.3 29.46-38.21 48.98-52.55 42.21-31.01 101.28-45.33 149.39-23.74 19.46 8.75 36.01 22.73 49.91 38.52 18.54 21.05 32.73 45.99 40.62 72.49 5.48 18.4 7.92 37.56 6.69 56.71z" style="fill:#fdcc13"/><path class="s2" d="M385 184.46c17.73 25.15 1.5 64.19-35.23 64.52-21.15.19-40.73-15.25-44.02-33.76-3.71-21 10.39-38.73 28.61-45.67 17.02-6.49 37.62-3.56 50.64 14.91zm-156.79 17.98c15.77 22.37 1.33 57.08-31.33 57.38-18.81.17-36.23-13.56-39.15-30.03-3.3-18.68 9.24-34.44 25.44-40.62 15.13-5.77 33.46-3.17 45.04 13.26z"/><path class="s3" d="M368.67 232.22c-4.07 6.12-11.39 9.94-18.74 9.77-6.86-.16-16.85-2.41-21.11-8.13-3.93-5.28-5.85-13.19-3.3-19.48 3.07-7.55 9.92-13.45 17.84-15.36 11.83-2.85 23.04 2.79 27.47 11.83 2.99 6.1 2.9 13.75-2.17 21.37z"/><path class="s2" d="M347.76 219.94c-1.98-7.64 7.53-21.14 15.56-13.33 6.04 5.87 2.85 20.19-6.43 20.92-4.29.34-8.06-3.43-9.14-7.6z"/><path class="s3" d="M211.72 243.71c-4.07 6.12-11.39 9.94-18.74 9.77-6.86-.16-16.85-2.41-21.11-8.13-3.93-5.28-5.85-13.19-3.3-19.48 3.07-7.55 9.92-13.45 17.84-15.36 11.83-2.85 23.04 2.79 27.47 11.83 2.99 6.1 2.9 13.75-2.17 21.37z"/><path class="s2" d="M190.82 231.43c-1.98-7.64 7.53-21.14 15.56-13.33 6.04 5.87 2.85 20.19-6.43 20.92-4.29.34-8.06-3.43-9.14-7.6z"/><path class="s0" d="M311.22 271.77c-1.54 18.31-14.06 36.21-31.91 40.58-5.6 1.37-11.45 1.42-17.2 1.06-19.93-1.23-31.25-20.32-37.45-36.85 8.63 1.3 17.13.91 25.83 1.34 20.4 1.01 40.95-1.05 60.73-6.14z"/><path d="M428.22 273.54c-3.56 54.66-40.89 99.31-91.81 121.23-45.44 19.57-115.48 22.55-157.84-6.85C148.72 367.2 127 338.49 115.99 305c-8.18-24.89-8.98-52.03-2.71-77.41 3.97-16.04 10.6-31.34 19.36-45.47-13.47 35.5-17.52 74.8-1.5 108.54 14.85 31.26 44.95 53.1 77.2 65.67 32.42 12.63 68.46 17.06 102.42 9.49 33.95-7.56 65.54-27.68 84.23-57.01 10.01-15.72 16.18-33.59 20.66-51.67 3.22-13.01 5.49-26.73 5.88-40.29 5.48 18.4 7.92 37.56 6.69 56.71z" style="fill:#f6a71c"/><path d="M209.32 138.1c.91.08 1.37-.28 1.4-1.08.06.15.12.3.19.44.55.33 1.15 1.31 1.67 1.72.3.24 1.24.66 1.26.83-.06-.39-1.12.62-1.22.51.41.43.57-2.27.62-1.48-.01-.27-.87-1.49-.39-1.05.57.52-1.13-.9-1.18-.78-.19.49 2.6.13 2.77.11.14-.02.7-.44.56-.58-.12-.12-.35 1.09-.43 1.58.09-.78.12-.86.1-.23.02.63-.02.55-.12-.24-.44.81.84.79-.26-.1-3.37-2.73-7.57-1.47-8.06 2.94 1.11-9.88 13.64-11.84 17.2-2.33 2.45 6.53-3.25 13.51-9.45 14.95-6.96 1.61-13.45-2.71-15.59-9.34-3.1-9.6 3.39-22.41 14.35-22.32 10.23.09 16.81 12.07 13.62 21.25-1.56 4.47-4.88 8.38-9.66 9.4-5.08 1.08-9.52-1.86-12.49-5.72-2.76-3.6-4.7-8.46-2.1-12.68 2.16-3.5 6.62-4.8 10.19-2.78 3.86 2.19 1.19 8-2.95 6.99zm-25.64 15.43c.74 1.15.49 2.94-.5 3.86-.17.17-.15.14.05-.11.14-.14.23-.3.27-.48.12-.32.14-.36.06-.13.03-.21.05-.43.08-.64-.01.09-.01.21 0 .31 0-.02-.18-1.01-.05-.53-.3-1.07-.36-.71-.17-.43.26.36-.65-.78-.35-.46.27.29-.95-.7-.42-.36.44.29-.6-.24-.6-.24-1.12.15-2.23.29-3.35.44.35-.15.7-.32 1.02-.52.16-.1.74-.53.11-.05-.59.45-.14.1-.01-.02.14-.13.28-.27.41-.41.13-.14.59-.71.08-.07-.48.61-.13.15-.04 0 .1-.17.19-.33.27-.51l-.48 1.14c.02-.07.05-.14.07-.21 1.12 1.98 2.25 3.96 3.37 5.94a1.54 1.54 0 0 0-.37-.09l1.3.18c-.12-.02-.25-.02-.38-.01l1.33-.18c-.2.03-.36.07-.55.13.41-.17.81-.34 1.22-.51-.18.08-.33.17-.5.28.35-.27.7-.54 1.06-.82-.15.13-.27.25-.4.4l.84-1.08c-.03.06-.06.11-.08.17l.54-1.29c-.05.11-.08.23-.1.35.07-.49.13-.98.2-1.47-.01.06-.01.12-.02.18 0 1.01-.26 1.95-.76 2.82-.5.84-1.17 1.51-2.01 2.01-1.55.91-3.35.97-4.98.28-3.58-1.51-4.6-6.27-1.8-9.06 1.35-1.35 3.24-2.21 5.16-2.26 1.93-.04 3.56.67 5 1.92 2.05 1.77 1.66 5.01 0 6.83-2.54 2.78-7.39 5.99-10.74 2.48-1.38-1.45-1.81-3.74-1.17-5.63.56-1.66 1.93-3.33 3.77-3.59 1.47-.21 2.76.17 3.6 1.47z" style="fill:#ffdc6f"/><path class="s0" d="M158.37 113.01c-11.98 2.04-22.95-11.46-31.01-18.55-10.43-9.17 5.86-25.59 15.26-15.26 7.26 7.98 20.72 18.59 18.93 30.62-.21 1.41-1.8 2.95-3.19 3.19zM96.23 231.24c-3.5 2.56-7.98 1.95-12.1 1.8-4.34-.15-8.64-.54-12.97-.93-8.96-.8-18.84-.56-26.8-5.2-5.47-3.19-4.73-12.57 1.83-13.98 9.41-2.03 18.95 1.27 28.12 3.38 7.4 1.7 18.73 2.61 23.43 9.16 1.44 2 .19 4.52-1.51 5.77zm191-151.48c-3.06-5.75-2.96-12.97-3.43-19.35-.52-7.1.61-14.93 3.55-21.41 1.93-4.24 7.62-5.34 11.51-3.77 4.46 1.79 6.21 6.38 5.34 10.88-1.06 5.49-3.45 11.05-5.26 16.35-1.81 5.28-1.77 11.13-3.82 16.27-1.27 3.2-5.98 4.63-7.9 1.03zm120.3 61.6c-.14-7.04 4.28-12.14 8.68-17.32 4.32-5.07 9.09-9.69 14.23-13.92 10.69-8.8 22.71 7.55 11.41 14.79-4.99 3.2-9.66 6.72-14.02 10.76-4.51 4.18-8.07 8.66-14.1 10.42-3.12.91-6.15-1.6-6.21-4.73zm87.4 81.17c11.87-1.09 12.12 19.23 0 18.64-6.61-.32-13.17-.07-19.77.49-4.97.42-12.87 3.09-16.61-1.48-9.7-11.86 30.8-17.13 36.38-17.65zm-54.05 117.78c5.62.95 12.17 3.78 17.41 6.1 5.75 2.55 11.36 5.3 16.99 8.09 4.32 2.13 5.48 8.23 3.18 12.15-2.6 4.44-7.78 5.16-12.15 3.18-11.22-5.07-23.74-11.95-31.14-22.1-2.88-3.95 1.89-8.06 5.71-7.42zm-77.89 73.1c2.86 4.3 4.73 9.27 7.24 13.79 2.54 4.58 5.37 9 8.32 13.33 5.91 8.68-8.79 17.43-14.14 8.27-5.61-9.59-11.58-21.15-12.57-32.36-.56-6.36 8.15-7.53 11.15-3.02zm-112.5 21.34c2.43 9.65.41 21.18-1.15 30.86-1.59 9.85-17.71 5.83-15.23-4.2 1.09-4.41 2.08-8.86 2.89-13.34.8-4.39.9-9.07 2.23-13.32 1.67-5.33 9.8-5.77 11.26 0zm-88.79-28.04c-2.66 6.46-6.96 12.31-10.85 18.09-5.11 7.59-15.83-.83-9.86-7.61 4.6-5.22 9.17-10.87 14.74-15.07 2.74-2.06 7.27 1.42 5.97 4.59zm-60.63-69.4c-7.05 6.03-15.87 10.32-23.57 15.5-6.59 4.43-13.23-6.78-6.24-10.67 7.94-4.42 16.85-9.84 25.85-11.64 3.64-.72 7.3 3.95 3.96 6.8z"/></g></g></svg>