<svg width="96" height="96" viewBox="0 0 96 96" fill="none" xmlns="http://www.w3.org/2000/svg">
<path d="M80.1512 63.1665C78.9122 61.0335 76.5977 59.826 74.1047 59.991C71.8457 60.15 69.5537 60.0885 67.2827 59.811C51.2267 57.849 38.1497 44.772 36.1892 28.716C35.9117 26.4435 35.8517 24.1485 36.0122 21.8955C36.1847 19.4055 34.9682 17.0895 32.8337 15.849C30.7502 14.6385 28.3037 14.718 26.2907 16.059C13.9442 24.2715 7.44324 38.562 9.32274 53.352C11.5007 70.4835 25.5167 84.4995 42.6497 86.6775C44.3372 86.892 46.0187 86.997 47.6852 86.997C60.6212 86.997 72.6662 80.649 79.9427 69.7155C81.2837 67.6995 81.3617 65.2515 80.1512 63.1665ZM77.4467 68.0535C69.8672 79.4415 56.6837 85.44 43.0277 83.7015C27.2297 81.693 14.3072 68.7705 12.2987 52.974C10.5632 39.321 16.5617 26.1315 27.9512 18.5535C28.5017 18.1875 29.1137 18.003 29.7272 18.003C30.2732 18.003 30.8207 18.15 31.3247 18.4425C32.2157 18.96 33.1292 20.085 33.0182 21.6855C32.8457 24.129 32.9117 26.616 33.2117 29.079C35.3372 46.485 49.5122 60.663 66.9197 62.7885C69.3782 63.09 71.8607 63.153 74.3147 62.985C75.9107 62.8725 77.0402 63.786 77.5592 64.677C78.1817 65.748 78.1397 67.011 77.4467 68.0535Z" fill="white"/>
<path d="M47.7149 78C46.4144 78 45.0914 77.916 43.7834 77.7495C30.6569 76.08 19.9199 65.343 18.2519 52.218L15.2759 52.596C17.1149 67.056 28.9439 78.8865 43.4069 80.727C44.8379 80.907 46.2869 81 47.7149 81C57.8099 81 67.1819 76.4445 73.4219 68.5005L71.0639 66.6465C65.3939 73.8615 56.8844 78 47.7149 78Z" fill="white"/>
<path d="M44.1601 74.775C45.3421 74.925 46.5376 75 47.7136 75C51.3406 75 54.8551 74.289 58.1611 72.888L56.9896 70.125C53.1016 71.775 48.8356 72.348 44.5381 71.7975C34.0831 70.467 25.5301 61.914 24.2011 51.459L21.2251 51.837C22.7236 63.6285 32.3701 73.275 44.1601 74.775Z" fill="white"/>
<path d="M64.7072 35.2769L65.1572 36.8399C65.5652 38.2544 66.6707 39.3599 68.0852 39.7679L69.6482 40.2179C70.6847 40.5164 70.6847 41.9849 69.6482 42.2834L68.0852 42.7334C66.6707 43.1414 65.5652 44.2469 65.1572 45.6614L64.7072 47.2244C64.4087 48.2609 62.9402 48.2609 62.6417 47.2244L62.1917 45.6614C61.7837 44.2469 60.6782 43.1414 59.2637 42.7334L57.7007 42.2834C56.6642 41.9849 56.6642 40.5164 57.7007 40.2179L59.2637 39.7679C60.6782 39.3599 61.7837 38.2544 62.1917 36.8399L62.6417 35.2769C62.9402 34.2404 64.4087 34.2404 64.7072 35.2769Z" fill="white"/>
<path d="M52.2478 16.932L52.4983 17.8005C52.7248 18.5865 53.3383 19.2 54.1243 19.4265L54.9928 19.677C55.5688 19.8435 55.5688 20.658 54.9928 20.8245L54.1243 21.075C53.3383 21.3015 52.7248 21.915 52.4983 22.701L52.2478 23.5695C52.0813 24.1455 51.2668 24.1455 51.1003 23.5695L50.8498 22.701C50.6233 21.915 50.0098 21.3015 49.2238 21.075L48.3553 20.8245C47.7793 20.658 47.7793 19.8435 48.3553 19.677L49.2238 19.4265C50.0098 19.2 50.6233 18.5865 50.8498 17.8005L51.1003 16.932C51.2668 16.356 52.0813 16.356 52.2478 16.932Z" fill="white"/>
<path d="M80.0115 9.9495L80.562 11.859C81.06 13.5885 82.4115 14.94 84.141 15.438L86.0505 15.9885C87.3165 16.353 87.3165 18.1485 86.0505 18.513L84.141 19.0635C82.4115 19.5615 81.06 20.913 80.562 22.6425L80.0115 24.552C79.647 25.818 77.8515 25.818 77.487 24.552L76.9365 22.6425C76.4385 20.913 75.087 19.5615 73.3575 19.0635L71.448 18.513C70.182 18.1485 70.182 16.353 71.448 15.9885L73.3575 15.438C75.087 14.94 76.4385 13.5885 76.9365 11.859L77.487 9.9495C77.853 8.6835 79.647 8.6835 80.0115 9.9495Z" fill="white"/>
</svg>
