<svg version="1.2" baseProfile="tiny-ps" xmlns="http://www.w3.org/2000/svg" width="558" height="518"><style>.s1{fill:#fdcc13}.s2{fill:#fff}</style><g id="Layer 1"><g id="&lt;Group&gt;"><path id="&lt;Path&gt;" d="M442.23 66.16c83.6 77.21 160.54 254.4 84.09 359.25-45.24 62.05-127.15 85.02-203.7 91.06-94.65 7.46-200.23-9.67-261.38-82.31-24.91-29.59-40.33-66.14-50.41-103.48C1.2 295.04-3.85 257.2 4.54 221.26 25.47 131.6 97.47 65.02 178.44 28.49c27.84-12.56 56.87-23.44 87.22-26.83 64.23-7.17 129.09 20.67 176.57 64.51z" style="fill:#1b2746"/><path class="s1" d="M412.18 336.37c16.6 6.58 26.98 4.14 27.52 24.69.39 14.95-5.63 29.9-14.89 41.45-26.03 32.45-71.25 50.41-110.63 58.01-93.31 18.01-213.36-41.52-218-146.05-3.15-70.99 28.13-132.24 77.7-181.02 16.44-16.18 55.05-51.35 70.85-16.8 18.26 39.93 18.35 84.55 45.98 121.19 30.04 39.83 73.13 79.39 121.48 98.54z"/><path class="s2" d="M232.43 290.88c-17.17 3.14-35.84-4.23-46.23-18.26-16.74-22.59-2.53-48.69 22.98-56.22 26.07-7.69 59.22 1.9 58.65 34.83-.33 19.19-16.53 36.19-35.4 39.65z"/><path d="M192.13 250.95c10.85 3.9 21.75 11.98 33.92 10.22 3.9-.56 8.16-2.58 11.01-4.91 3.28-2.68 4.89-5.89 5.08-9.29.58-10.67 16.44-10.77 16.66 0 .32 15.61-13.9 26.53-28.27 28.27-15.08 1.83-32.1-6.86-42.38-17.45-2.69-2.77-.02-8.28 3.98-6.84z" style="fill:#1d1d1b"/><path d="M308.52 314.51c-.31-5.24.79-10.06 3.54-11.87 6.95-4.58 18.2 3.71 23.26 17.08 6.22 16.42 1.12 30.04-10.31 24.27-8.1-4.09-15.81-17.87-16.49-29.48z" style="fill:#e8770a"/><path d="M165.69 136.01c11.41-29.15 37.38-49.69 62.62-68.19 13.63-9.99 27.8-20.01 44.15-24.32 16.35-4.3 35.56-1.75 47.11 10.6 12.09 12.94 13.06 32.91 23.15 47.45-3.63 3.66-8.3 6.27-13.31 7.46-3.83-8.73-13.35-14.63-22.87-14.19-9.53.45-18.45 7.21-21.45 16.26-1.68 5.07-1.61 10.55-2.68 15.78-3.68 18.03-20.68 30.93-38.54 35.35-17.86 4.42-36.61 2.02-54.84-.42-19.5-2.6-15.69-7.66-23.33-25.79z" style="fill:#de222b"/><path class="s2" d="M132.88 142.82c4.49-5.81 11.46-9.11 18.37-11.61 28.06-10.18 58.76-10.51 88.46-7.55 11.07 1.11 22.31 2.71 32.32 7.56 10.01 4.85 18.75 13.44 21.24 24.28 2.49 10.84-2.77 23.66-13.18 27.57-4.88 1.83-10.25 1.64-15.46 1.41-32.39-1.49-64.92-6.48-97.26-7.2-17.05-.38-57.61-4.57-34.49-34.46zm194.63 1.91c-26.26-5.91-24.11-46.28-2.86-57.42 6.8-3.56 12.7-4.69 17.68-4.04 29.66 3.88 26.61 70.77-14.82 61.45zm40.88 65.82c13.32 3.7 26.23 8.98 39.18 13.8 2.27.84 3.29 4.31.73 5.59-13.74 6.9-27.84 14.2-39.75 24.03l-1.65-6.24c15.36 5.52 30.35 12.37 45.28 18.94 4.13 1.81 1.07 8.97-3.07 7.28-15.1-6.17-30.45-12.18-45.09-19.39-2.63-1.29-2.22-5.05 0-6.45 13.44-8.47 26.55-17.11 41.19-23.45v5.28c-12.63-5.54-25.57-10.72-37.69-17.33-1.14-.62-.35-2.41.87-2.07zm41.32-66.98c20.61 5.49 39.47 15.42 57.01 27.4 1.98 1.35 2.52 4.79 0 6-13.61 6.58-27.04 13.62-39.89 21.59.25-1.97.51-3.95.76-5.92 17.58 14.07 34.82 28.57 52.17 42.93 4.29 3.55-1.88 9.72-6.13 6.13-17.16-14.52-34.46-28.91-51.38-43.72-1.82-1.6-1.25-4.79.76-5.92 13.21-7.4 26.49-14.59 40.18-21.08v6c-17.22-11.96-35.74-21.85-54.28-31.55-1.04-.55-.3-2.14.78-1.85zm69.56 285.33c-16.43 18.71-42.48 25.23-67.04 29.32-88.52 14.74-178.96 10.61-268.59 6.43-22.66-1.06-51.27-6.91-55.69-29.16-2.76-13.88 6.2-27.36 16.24-37.34 7.17-7.12 15.52-13.64 25.4-15.78 9.88-2.14 21.5 1.17 26.54 9.93-7.84-38.01 30.05-74.53 68.86-75.28s73.86 25.5 95.63 57.63c2.29-12.16 13.32-22.11 25.65-23.14 12.33-1.03 24.86 6.96 29.13 18.57 8.34-14.32 16.9-28.91 29.41-39.77 58.8-51.05 111.89 55.97 74.47 98.59z"/><path class="s1" d="m512.54 289.76 10.25 5.27 11.15-2.9-1.84 11.38 6.2 9.71-11.39 1.77-7.32 8.9-5.2-10.29-10.73-4.21 8.18-8.12.69-11.5zM44.12 186.11l16.9 8.68 18.39-4.77-3.03 18.76L86.6 224.8l-18.78 2.91-12.07 14.67-8.57-16.96-17.69-6.95 13.48-13.39 1.14-18.97z"/></g></g></svg>