<svg width="127" height="60" viewBox="0 0 127 60" fill="none" xmlns="http://www.w3.org/2000/svg">
<path d="M57.6924 54.2305H19.0829L16.4202 59.9109H63.1953L57.6924 54.2305Z" fill="#E62B32"/>
<path d="M35.2367 2.84024L32.929 0L0 59.9112H3.46154L35.2367 2.84024Z" fill="#1A1A18"/>
<path d="M36.568 17.0413L32.6627 12.1597L9.85205 52.633H16.8639L36.568 17.0413Z" fill="#E62B32"/>
<path d="M54.8521 26.1835L36.6568 5.14795L33.5503 10.7397L46.2426 26.1835H54.8521Z" fill="#E62B32"/>
<path d="M8.60956 59.9111H6.39062L9.31962 54.3193H11.6273L8.60956 59.9111Z" fill="#E62B32"/>
<path d="M13.0473 59.9111H10.8284L13.7574 54.3193H16.0651L13.0473 59.9111Z" fill="#E62B32"/>
<path d="M34.9757 40.6599C34.3089 40.6599 33.7125 40.5564 33.1863 40.3492C32.6603 40.138 32.2151 39.8232 31.8505 39.4048C31.4861 38.9823 31.2127 38.4583 31.0304 37.8329L32.4967 37.4664C32.6625 37.9966 32.9545 38.4273 33.3727 38.7587C33.7911 39.0901 34.2944 39.2536 34.8825 39.2495C35.2925 39.2412 35.6799 39.1604 36.0443 39.0072C36.413 38.854 36.7133 38.6179 36.9452 38.2989C37.1316 38.0628 37.2683 37.8102 37.3552 37.5409C37.4422 37.2675 37.5024 36.9858 37.5354 36.696H34.3668V35.2918H37.5478C37.4816 34.7864 37.3366 34.3434 37.1129 33.9622C36.8893 33.577 36.5891 33.2788 36.212 33.0676C35.8393 32.8522 35.3962 32.7486 34.8825 32.7569C34.2695 32.761 33.7517 32.9309 33.3292 33.2664C32.9067 33.6019 32.619 34.0554 32.4656 34.627L30.9683 34.4158C31.1919 33.4382 31.6517 32.6823 32.3476 32.148C33.0434 31.6096 33.9194 31.3403 34.9757 31.3403C35.8414 31.3403 36.5848 31.537 37.2061 31.9306C37.8317 32.3199 38.312 32.8647 38.6476 33.5646C38.9873 34.2645 39.1592 35.0765 39.1632 36.0001C39.1675 36.8699 39.0038 37.6568 38.6724 38.361C38.3412 39.0652 37.8606 39.6244 37.231 40.0386C36.6056 40.4527 35.8538 40.6599 34.9757 40.6599ZM41.03 40.4735V31.5267H44.5776C45.1824 31.5267 45.6773 31.6489 46.0625 31.8933C46.452 32.1335 46.7397 32.4422 46.9261 32.819C47.1168 33.1959 47.2119 33.5854 47.2119 33.9871C47.2119 34.48 47.0939 34.8983 46.8578 35.2421C46.626 35.586 46.3091 35.8178 45.9072 35.938V35.6273C46.4706 35.7557 46.8972 36.0228 47.1871 36.4288C47.4812 36.8348 47.6282 37.2965 47.6282 37.8143C47.6282 38.3445 47.5268 38.8084 47.3238 39.206C47.1209 39.6036 46.8186 39.9143 46.4167 40.138C46.019 40.3616 45.5262 40.4735 44.938 40.4735H41.03ZM42.546 39.0631H44.7516C45.0125 39.0631 45.2467 39.0113 45.4536 38.9078C45.6608 38.8 45.8223 38.6509 45.9383 38.4605C46.0584 38.2657 46.1184 38.0358 46.1184 37.7708C46.1184 37.5306 46.0668 37.3151 45.9631 37.1247C45.8596 36.9342 45.7084 36.7829 45.5096 36.6711C45.3107 36.5552 45.0727 36.4971 44.7951 36.4971H42.546V39.0631ZM42.546 35.0992H44.559C44.7745 35.0992 44.9671 35.0578 45.1368 34.9749C45.3067 34.892 45.4412 34.7699 45.5406 34.6084C45.64 34.4468 45.6897 34.248 45.6897 34.0119C45.6897 33.7013 45.5903 33.4425 45.3915 33.2353C45.1927 33.0281 44.9152 32.9247 44.559 32.9247H42.546V35.0992ZM48.8692 40.4735L51.6899 31.5267H53.8831L56.7038 40.4735H55.163L52.6032 32.4462H52.9387L50.41 40.4735H48.8692ZM50.4411 38.535V37.1371H55.1381V38.535H50.4411ZM58.4483 40.4735V31.5267H59.9456V35.677L63.5181 31.5267H65.3571L61.5113 35.9131L65.6181 40.4735H63.7169L59.9456 36.2983V40.4735H58.4483ZM68.2955 40.4735L69.476 38.0628L66.3881 31.5267H68.0781L70.2588 36.4847L72.508 31.5267H74.1047L69.8923 40.4735H68.2955ZM74.1532 40.4735L76.9739 31.5267H79.1671L81.9878 40.4735H80.447L77.8872 32.4462H78.2227L75.694 40.4735H74.1532ZM75.7251 38.535V37.1371H80.4221V38.535H75.7251ZM85.1419 40.4735V32.9309H82.2466V31.5267H89.5345V32.9309H86.6392V40.4735H85.1419ZM94.9329 40.6599C94.0382 40.6599 93.272 40.4651 92.6341 40.0758C91.9963 39.6823 91.5054 39.1355 91.1616 38.4356C90.822 37.7357 90.6521 36.9237 90.6521 36.0001C90.6521 35.0765 90.822 34.2645 91.1616 33.5646C91.5054 32.8647 91.9963 32.3199 92.6341 31.9306C93.272 31.537 94.0382 31.3403 94.9329 31.3403C95.8276 31.3403 96.5939 31.537 97.2317 31.9306C97.8738 32.3199 98.3646 32.8647 98.7042 33.5646C99.048 34.2645 99.2199 35.0765 99.2199 36.0001C99.2199 36.9237 99.048 37.7357 98.7042 38.4356C98.3646 39.1355 97.8738 39.6823 97.2317 40.0758C96.5939 40.4651 95.8276 40.6599 94.9329 40.6599ZM94.9329 39.2495C95.5336 39.2536 96.0326 39.1212 96.4302 38.8519C96.8321 38.5826 97.1323 38.2036 97.3311 37.7149C97.5342 37.2262 97.6355 36.6546 97.6355 36.0001C97.6355 35.3456 97.5342 34.7783 97.3311 34.2977C97.1323 33.8131 96.8321 33.4362 96.4302 33.167C96.0326 32.8977 95.5336 32.759 94.9329 32.7507C94.3323 32.7466 93.8332 32.879 93.4355 33.1483C93.0379 33.4176 92.7377 33.7966 92.5347 34.2853C92.3358 34.774 92.2364 35.3456 92.2364 36.0001C92.2364 36.6546 92.3358 37.2241 92.5347 37.7087C92.7335 38.1892 93.0317 38.5639 93.4293 38.8332C93.8312 39.1025 94.3323 39.2412 94.9329 39.2495ZM101.078 40.4735V31.5267H104.775C104.862 31.5267 104.973 31.5308 105.11 31.5391C105.247 31.5432 105.373 31.5557 105.489 31.5764C106.007 31.6551 106.434 31.8271 106.769 32.0921C107.109 32.3571 107.359 32.6926 107.521 33.0986C107.686 33.5003 107.769 33.9477 107.769 34.4406C107.769 34.9293 107.686 35.3767 107.521 35.7826C107.355 36.1844 107.102 36.5179 106.763 36.7829C106.427 37.048 106.003 37.22 105.489 37.2986C105.373 37.3151 105.245 37.3276 105.104 37.3359C104.967 37.3442 104.858 37.3483 104.775 37.3483H102.575V40.4735H101.078ZM102.575 35.9504H104.713C104.795 35.9504 104.889 35.9463 104.992 35.938C105.096 35.9296 105.191 35.9131 105.278 35.8883C105.526 35.8261 105.721 35.7164 105.862 35.559C106.007 35.4015 106.108 35.2235 106.166 35.0247C106.228 34.8258 106.26 34.6311 106.26 34.4406C106.26 34.2502 106.228 34.0554 106.166 33.8566C106.108 33.6537 106.007 33.4735 105.862 33.3161C105.721 33.1586 105.526 33.0489 105.278 32.9868C105.191 32.9619 105.096 32.9474 104.992 32.9433C104.889 32.9349 104.795 32.9309 104.713 32.9309H102.575V35.9504ZM112.496 40.461V39.1563L116.323 35.7454C116.621 35.4803 116.828 35.2297 116.944 34.9936C117.06 34.7575 117.118 34.5297 117.118 34.3102C117.118 34.0119 117.054 33.7469 116.926 33.5149C116.797 33.2788 116.619 33.0924 116.391 32.9557C116.168 32.819 115.909 32.7507 115.615 32.7507C115.304 32.7507 115.029 32.8231 114.788 32.9681C114.552 33.1089 114.368 33.2974 114.235 33.5335C114.103 33.7696 114.041 34.0244 114.049 34.2977H112.508C112.508 33.7013 112.641 33.1815 112.906 32.7383C113.175 32.295 113.544 31.9513 114.012 31.7069C114.484 31.4625 115.029 31.3403 115.646 31.3403C116.217 31.3403 116.731 31.4687 117.187 31.7255C117.642 31.9781 118.001 32.3303 118.262 32.7818C118.522 33.2291 118.653 33.7448 118.653 34.3288C118.653 34.7554 118.595 35.1138 118.479 35.4036C118.363 35.6935 118.189 35.9607 117.957 36.2051C117.729 36.4496 117.445 36.7208 117.106 37.019L114.391 39.4235L114.254 39.0507H118.653V40.461H112.496ZM124.241 40.4735V38.9948H120.277V37.5968L123.141 31.5267H124.849L121.985 37.5968H124.241V35.267H125.757V37.5968H126.595V38.9948H125.757V40.4735H124.241Z" fill="#1A1A18"/>
<path d="M33.8153 49.4287C33.4319 49.4287 33.1035 49.3452 32.8301 49.1784C32.5567 49.0097 32.3464 48.7754 32.1991 48.4754C32.0535 48.1754 31.9807 47.8275 31.9807 47.4316C31.9807 47.0358 32.0535 46.6878 32.1991 46.3878C32.3464 46.0878 32.5567 45.8544 32.8301 45.6875C33.1035 45.5189 33.4319 45.4346 33.8153 45.4346C34.2573 45.4346 34.6257 45.5455 34.9204 45.7674C35.215 45.9875 35.4218 46.2849 35.5408 46.6594L34.8937 46.8378C34.8192 46.5875 34.6923 46.3923 34.513 46.252C34.3337 46.11 34.1011 46.039 33.8153 46.039C33.5579 46.039 33.3431 46.0967 33.1709 46.2121C33.0005 46.3275 32.8718 46.4899 32.7849 46.6994C32.6996 46.9071 32.6562 47.1511 32.6544 47.4316C32.6544 47.7121 32.697 47.9571 32.7822 48.1665C32.8692 48.3742 32.9988 48.5358 33.1709 48.6511C33.3431 48.7665 33.5579 48.8242 33.8153 48.8242C34.1011 48.8242 34.3337 48.7532 34.513 48.6112C34.6923 48.4692 34.8192 48.2739 34.8937 48.0254L35.5408 48.2038C35.4218 48.5784 35.215 48.8766 34.9204 49.0985C34.6257 49.3186 34.2573 49.4287 33.8153 49.4287ZM36.0213 49.3488L37.2302 45.5145H38.1701L39.379 49.3488H38.7186L37.6216 45.9085H37.7654L36.6817 49.3488H36.0213ZM36.695 48.518V47.9189H38.708V48.518H36.695ZM40.1267 49.3488V45.5145H40.7684V47.1281H42.5844V45.5145H43.2234V49.3488H42.5844V47.7298H40.7684V49.3488H40.1267ZM44.2363 49.3488V45.5145H44.878V47.2932L46.4091 45.5145H47.1973L45.5491 47.3943L47.3091 49.3488H46.4943L44.878 47.5594V49.3488H44.2363ZM48.8718 49.3488V46.1162H47.631V45.5145H50.7543V46.1162H49.5135V49.3488H48.8718ZM51.3932 47.6819V47.1787H52.9908V47.6819H51.3932ZM53.9491 49.3488V45.5145H57.0565V49.3488H56.4147V46.1162H54.5908V49.3488H53.9491ZM58.0688 49.3488V45.5145H60.5452V46.1162H58.7105V47.0615H60.2256V47.6633H58.7105V48.747H60.5452V49.3488H58.0688ZM62.3716 49.3488V46.1162H61.1308V45.5145H64.2541V46.1162H63.0133V49.3488H62.3716ZM64.9463 49.3488V45.5145H67.4226V46.1162H65.588V47.0615H67.1031V47.6633H65.588V48.747H67.4226V49.3488H64.9463ZM68.3278 49.3488V45.5145H69.9121C69.9494 45.5145 69.9973 45.5162 70.0559 45.5198C70.1144 45.5216 70.1686 45.5269 70.2183 45.5358C70.4402 45.5695 70.623 45.6432 70.7666 45.7568C70.9124 45.8704 71.0198 46.0142 71.089 46.1881C71.16 46.3603 71.1955 46.552 71.1955 46.7633C71.1955 46.9727 71.16 47.1645 71.089 47.3384C71.018 47.5106 70.9097 47.6535 70.7641 47.7671C70.6204 47.8807 70.4384 47.9544 70.2183 47.9881C70.1686 47.9952 70.1136 48.0005 70.0532 48.0041C69.9946 48.0076 69.9476 48.0094 69.9121 48.0094H68.9695V49.3488H68.3278ZM68.9695 47.4103H69.8854C69.9209 47.4103 69.9609 47.4085 70.0053 47.405C70.0496 47.4014 70.0905 47.3943 70.1278 47.3837C70.2343 47.3571 70.3177 47.31 70.3781 47.2426C70.4402 47.1751 70.4837 47.0988 70.5085 47.0136C70.5351 46.9284 70.5485 46.8449 70.5485 46.7633C70.5485 46.6816 70.5351 46.5982 70.5085 46.513C70.4837 46.426 70.4402 46.3488 70.3781 46.2813C70.3177 46.2139 70.2343 46.1668 70.1278 46.1402C70.0905 46.1295 70.0496 46.1233 70.0053 46.1216C69.9609 46.118 69.9209 46.1162 69.8854 46.1162H68.9695V47.4103ZM71.9952 49.3488V45.5145H74.5594V46.1162H72.6369V46.9417H73.5795C73.615 46.9417 73.6621 46.9434 73.7207 46.947C73.781 46.9488 73.836 46.9523 73.8857 46.9576C74.1005 46.9825 74.2798 47.0508 74.4236 47.1627C74.5692 47.2745 74.6783 47.4156 74.7511 47.5861C74.8257 47.7565 74.863 47.9429 74.863 48.1452C74.863 48.3476 74.8266 48.5349 74.7538 48.7071C74.681 48.8775 74.5718 49.0186 74.4263 49.1304C74.2825 49.2405 74.1023 49.3079 73.8857 49.3328C73.836 49.3381 73.7819 49.3426 73.7233 49.3461C73.6647 49.3479 73.6168 49.3488 73.5795 49.3488H71.9952ZM72.6369 48.747H73.5529C73.5884 48.747 73.6283 48.7452 73.6727 48.7417C73.7171 48.7381 73.7579 48.7328 73.7952 48.7257C73.955 48.692 74.065 48.6174 74.1254 48.502C74.1857 48.3866 74.2159 48.2677 74.2159 48.1452C74.2159 48.021 74.1857 47.902 74.1254 47.7884C74.065 47.673 73.955 47.5985 73.7952 47.5648C73.7579 47.5559 73.7171 47.5505 73.6727 47.5488C73.6283 47.5452 73.5884 47.5434 73.5529 47.5434H72.6369V48.747ZM76.1686 49.3488L76.6745 48.3156L75.3511 45.5145H76.0754L77.01 47.6393L77.9739 45.5145H78.6582L76.8529 49.3488H76.1686ZM79.3197 49.3488V45.5145H80.904C80.9412 45.5145 80.9892 45.5162 81.0478 45.5198C81.1063 45.5216 81.1605 45.5269 81.2102 45.5358C81.4321 45.5695 81.6149 45.6432 81.7587 45.7568C81.9043 45.8704 82.0117 46.0142 82.0809 46.1881C82.1519 46.3603 82.1874 46.552 82.1874 46.7633C82.1874 46.9727 82.1519 47.1645 82.0809 47.3384C82.0099 47.5106 81.9016 47.6535 81.756 47.7671C81.6123 47.8807 81.4303 47.9544 81.2102 47.9881C81.1605 47.9952 81.1054 48.0005 81.0451 48.0041C80.9865 48.0076 80.9395 48.0094 80.904 48.0094H79.9614V49.3488H79.3197ZM79.9614 47.4103H80.8773C80.9128 47.4103 80.9528 47.4085 80.9972 47.405C81.0415 47.4014 81.0824 47.3943 81.1196 47.3837C81.2262 47.3571 81.3096 47.31 81.3699 47.2426C81.4321 47.1751 81.4756 47.0988 81.5004 47.0136C81.527 46.9284 81.5404 46.8449 81.5404 46.7633C81.5404 46.6816 81.527 46.5982 81.5004 46.513C81.4756 46.426 81.4321 46.3488 81.3699 46.2813C81.3096 46.2139 81.2262 46.1668 81.1196 46.1402C81.0824 46.1295 81.0415 46.1233 80.9972 46.1216C80.9528 46.118 80.9128 46.1162 80.8773 46.1162H79.9614V47.4103ZM82.9873 49.3488V45.5145H85.4636V46.1162H83.629V49.3488H82.9873Z" fill="#1A1A18"/>
</svg>
