<svg width="1042" height="338" viewBox="0 0 1042 338" fill="none" xmlns="http://www.w3.org/2000/svg">
<path d="M325 305.5H107.5L92.5 337.5H356L325 305.5Z" fill="#E62B32"/>
<path d="M198.5 16L185.5 0L0 337.5H19.5L198.5 16Z" fill="white"/>
<path d="M206 96L184 68.5L55.5 296.5H95L206 96Z" fill="#E62B32"/>
<path d="M289 124L206.5 29L189 60.5L242 124H289Z" fill="#E62B32"/>
<path d="M48.5 337.5H36L52.5 306H65.5L48.5 337.5Z" fill="#E62B32"/>
<path d="M73.5 337.5H61L77.5 306H90.5L73.5 337.5Z" fill="#E62B32"/>
<path d="M202.67 255.5C197.303 255.5 192.503 254.667 188.27 253C184.037 251.3 180.453 248.767 177.52 245.4C174.587 242 172.387 237.783 170.92 232.75L182.72 229.8C184.053 234.067 186.403 237.533 189.77 240.2C193.137 242.867 197.187 244.183 201.92 244.15C205.22 244.083 208.337 243.433 211.27 242.2C214.237 240.967 216.653 239.067 218.52 236.5C220.02 234.6 221.12 232.567 221.82 230.4C222.52 228.2 223.003 225.933 223.27 223.6H197.77V212.3H223.37C222.837 208.233 221.67 204.667 219.87 201.6C218.07 198.5 215.653 196.1 212.62 194.4C209.62 192.667 206.053 191.833 201.92 191.9C196.987 191.933 192.82 193.3 189.42 196C186.02 198.7 183.703 202.35 182.47 206.95L170.42 205.25C172.22 197.383 175.92 191.3 181.52 187C187.12 182.667 194.17 180.5 202.67 180.5C209.637 180.5 215.62 182.083 220.62 185.25C225.653 188.383 229.52 192.767 232.22 198.4C234.953 204.033 236.337 210.567 236.37 218C236.403 225 235.087 231.333 232.42 237C229.753 242.667 225.887 247.167 220.82 250.5C215.787 253.833 209.737 255.5 202.67 255.5ZM251.393 254V182H279.943C284.809 182 288.793 182.983 291.893 184.95C295.026 186.883 297.343 189.367 298.843 192.4C300.376 195.433 301.143 198.567 301.143 201.8C301.143 205.767 300.193 209.133 298.293 211.9C296.426 214.667 293.876 216.533 290.643 217.5V215C295.176 216.033 298.609 218.183 300.943 221.45C303.309 224.717 304.493 228.433 304.493 232.6C304.493 236.867 303.676 240.6 302.043 243.8C300.409 247 297.976 249.5 294.743 251.3C291.543 253.1 287.576 254 282.843 254H251.393ZM263.593 242.65H281.343C283.443 242.65 285.326 242.233 286.993 241.4C288.659 240.533 289.959 239.333 290.893 237.8C291.859 236.233 292.343 234.383 292.343 232.25C292.343 230.317 291.926 228.583 291.093 227.05C290.259 225.517 289.043 224.3 287.443 223.4C285.843 222.467 283.926 222 281.693 222H263.593V242.65ZM263.593 210.75H279.793C281.526 210.75 283.076 210.417 284.443 209.75C285.809 209.083 286.893 208.1 287.693 206.8C288.493 205.5 288.893 203.9 288.893 202C288.893 199.5 288.093 197.417 286.493 195.75C284.893 194.083 282.659 193.25 279.793 193.25H263.593V210.75ZM314.479 254L337.179 182H354.829L377.529 254H365.129L344.529 189.4H347.229L326.879 254H314.479ZM327.129 238.4V227.15H364.929V238.4H327.129ZM391.568 254V182H403.618V215.4L432.368 182H447.168L416.218 217.3L449.268 254H433.968L403.618 220.4V254H391.568ZM470.814 254L480.314 234.6L455.464 182H469.064L486.614 221.9L504.714 182H517.564L483.664 254H470.814ZM517.955 254L540.655 182H558.305L581.005 254H568.605L548.005 189.4H550.705L530.355 254H517.955ZM530.605 238.4V227.15H568.405V238.4H530.605ZM606.388 254V193.3H583.088V182H641.738V193.3H618.438V254H606.388ZM685.182 255.5C677.982 255.5 671.816 253.933 666.682 250.8C661.549 247.633 657.599 243.233 654.832 237.6C652.099 231.967 650.732 225.433 650.732 218C650.732 210.567 652.099 204.033 654.832 198.4C657.599 192.767 661.549 188.383 666.682 185.25C671.816 182.083 677.982 180.5 685.182 180.5C692.382 180.5 698.549 182.083 703.682 185.25C708.849 188.383 712.799 192.767 715.532 198.4C718.299 204.033 719.682 210.567 719.682 218C719.682 225.433 718.299 231.967 715.532 237.6C712.799 243.233 708.849 247.633 703.682 250.8C698.549 253.933 692.382 255.5 685.182 255.5ZM685.182 244.15C690.016 244.183 694.032 243.117 697.232 240.95C700.466 238.783 702.882 235.733 704.482 231.8C706.116 227.867 706.932 223.267 706.932 218C706.932 212.733 706.116 208.167 704.482 204.3C702.882 200.4 700.466 197.367 697.232 195.2C694.032 193.033 690.016 191.917 685.182 191.85C680.349 191.817 676.332 192.883 673.132 195.05C669.932 197.217 667.516 200.267 665.882 204.2C664.282 208.133 663.482 212.733 663.482 218C663.482 223.267 664.282 227.85 665.882 231.75C667.482 235.617 669.882 238.633 673.082 240.8C676.316 242.967 680.349 244.083 685.182 244.15ZM734.635 254V182H764.385C765.085 182 765.985 182.033 767.085 182.1C768.185 182.133 769.201 182.233 770.135 182.4C774.301 183.033 777.735 184.417 780.435 186.55C783.168 188.683 785.185 191.383 786.485 194.65C787.818 197.883 788.485 201.483 788.485 205.45C788.485 209.383 787.818 212.983 786.485 216.25C785.151 219.483 783.118 222.167 780.385 224.3C777.685 226.433 774.268 227.817 770.135 228.45C769.201 228.583 768.168 228.683 767.035 228.75C765.935 228.817 765.051 228.85 764.385 228.85H746.685V254H734.635ZM746.685 217.6H763.885C764.551 217.6 765.301 217.567 766.135 217.5C766.968 217.433 767.735 217.3 768.435 217.1C770.435 216.6 772.001 215.717 773.135 214.45C774.301 213.183 775.118 211.75 775.585 210.15C776.085 208.55 776.335 206.983 776.335 205.45C776.335 203.917 776.085 202.35 775.585 200.75C775.118 199.117 774.301 197.667 773.135 196.4C772.001 195.133 770.435 194.25 768.435 193.75C767.735 193.55 766.968 193.433 766.135 193.4C765.301 193.333 764.551 193.3 763.885 193.3H746.685V217.6ZM858.971 255.5C851.771 255.5 845.605 253.933 840.471 250.8C835.338 247.633 831.388 243.233 828.621 237.6C825.888 231.967 824.521 225.433 824.521 218C824.521 210.567 825.888 204.033 828.621 198.4C831.388 192.767 835.338 188.383 840.471 185.25C845.605 182.083 851.771 180.5 858.971 180.5C867.271 180.5 874.188 182.583 879.721 186.75C885.255 190.883 889.138 196.467 891.371 203.5L879.221 206.85C877.821 202.15 875.438 198.483 872.071 195.85C868.705 193.183 864.338 191.85 858.971 191.85C854.138 191.85 850.105 192.933 846.871 195.1C843.671 197.267 841.255 200.317 839.621 204.25C838.021 208.15 837.205 212.733 837.171 218C837.171 223.267 837.971 227.867 839.571 231.8C841.205 235.7 843.638 238.733 846.871 240.9C850.105 243.067 854.138 244.15 858.971 244.15C864.338 244.15 868.705 242.817 872.071 240.15C875.438 237.483 877.821 233.817 879.221 229.15L891.371 232.5C889.138 239.533 885.255 245.133 879.721 249.3C874.188 253.433 867.271 255.5 858.971 255.5ZM907.35 254V182H965.7V254H953.65V193.3H919.4V254H907.35ZM984.713 254V182H1032.86V193.3H996.763V208.8H1014.46C1015.13 208.8 1016.01 208.833 1017.11 208.9C1018.25 208.933 1019.28 209 1020.21 209.1C1024.25 209.567 1027.61 210.85 1030.31 212.95C1033.05 215.05 1035.1 217.7 1036.46 220.9C1037.86 224.1 1038.56 227.6 1038.56 231.4C1038.56 235.2 1037.88 238.717 1036.51 241.95C1035.15 245.15 1033.1 247.8 1030.36 249.9C1027.66 251.967 1024.28 253.233 1020.21 253.7C1019.28 253.8 1018.26 253.883 1017.16 253.95C1016.06 253.983 1015.16 254 1014.46 254H984.713ZM996.763 242.7H1013.96C1014.63 242.7 1015.38 242.667 1016.21 242.6C1017.05 242.533 1017.81 242.433 1018.51 242.3C1021.51 241.667 1023.58 240.267 1024.71 238.1C1025.85 235.933 1026.41 233.7 1026.41 231.4C1026.41 229.067 1025.85 226.833 1024.71 224.7C1023.58 222.533 1021.51 221.133 1018.51 220.5C1017.81 220.333 1017.05 220.233 1016.21 220.2C1015.38 220.133 1014.63 220.1 1013.96 220.1H996.763V242.7Z" fill="white"/>
</svg>
