<svg width="96" height="96" fill="none" xmlns="http://www.w3.org/2000/svg"><path d="M47.977 90h-.018a1.508 1.508 0 0 1-1.134-.538l-7.344-8.792-11.272 3.826a1.503 1.503 0 0 1-1.96-1.162l-1.966-11.288L12.61 69.72a1.495 1.495 0 0 1-1.114-1.986l3.942-10.758-8.95-7.848a1.496 1.496 0 0 1-.51-1.146c.005-.438.202-.852.538-1.134l8.791-7.344-3.826-11.272a1.502 1.502 0 0 1 1.162-1.961l11.288-1.965 2.323-11.675a1.496 1.496 0 0 1 1.986-1.115l10.758 3.943 7.848-8.949c.29-.33.708-.507 1.146-.511.438.006.852.202 1.134.538l7.344 8.791 11.273-3.826a1.502 1.502 0 0 1 1.96 1.162l1.965 11.288 11.675 2.323a1.495 1.495 0 0 1 1.115 1.986L80.514 39.02l8.95 7.847c.33.289.517.709.51 1.147a1.508 1.508 0 0 1-.538 1.133l-8.791 7.345 3.826 11.272a1.502 1.502 0 0 1-1.162 1.96L72.022 71.69 69.7 83.364c-.086.429-.354.8-.737 1.015a1.484 1.484 0 0 1-1.25.1l-10.757-3.942-7.848 8.948a1.497 1.497 0 0 1-1.13.515Zm-8.004-12.582a1.5 1.5 0 0 1 1.152.538l6.88 8.236 7.372-8.405a1.492 1.492 0 0 1 1.644-.419l10.078 3.694 2.183-10.965a1.5 1.5 0 0 1 1.213-1.185l10.575-1.843-3.594-10.587a1.498 1.498 0 0 1 .46-1.633l8.236-6.88-8.405-7.372a1.497 1.497 0 0 1-.418-1.644l3.693-10.078-10.965-2.183a1.5 1.5 0 0 1-1.185-1.213l-1.842-10.57-10.587 3.594a1.504 1.504 0 0 1-1.634-.461l-6.88-8.235-7.371 8.405a1.487 1.487 0 0 1-1.644.418l-10.079-3.693-2.182 10.965a1.5 1.5 0 0 1-1.214 1.185l-10.575 1.842 3.594 10.587c.2.588.017 1.236-.46 1.634l-8.235 6.88 8.404 7.371c.467.408.633 1.062.419 1.644l-3.693 10.079 10.965 2.182a1.5 1.5 0 0 1 1.185 1.213l1.842 10.575 10.587-3.593a1.44 1.44 0 0 1 .481-.083Z" fill="#fff"/><path d="M48 75c-14.888 0-27-12.112-27-27s12.112-27 27-27 27 12.112 27 27-12.112 27-27 27Zm0-51c-13.233 0-24 10.767-24 24s10.767 24 24 24 24-10.767 24-24-10.767-24-24-24Z" fill="#fff"/></svg>