<svg width="96" height="96" fill="none" xmlns="http://www.w3.org/2000/svg"><path d="M80.151 63.166c-1.239-2.133-3.553-3.34-6.046-3.175a35.685 35.685 0 0 1-6.822-.18C51.227 57.849 38.15 44.772 36.189 28.716a35.561 35.561 0 0 1-.177-6.82c.173-2.49-1.044-4.806-3.178-6.047-2.084-1.21-4.53-1.131-6.543.21C13.944 24.271 7.443 38.562 9.323 53.352 11.5 70.484 25.517 84.5 42.65 86.677c1.687.215 3.369.32 5.035.32 12.936 0 24.981-6.348 32.258-17.281 1.34-2.016 1.419-4.465.208-6.55Zm-2.704 4.888C69.867 79.442 56.684 85.44 43.027 83.7 27.23 81.694 14.308 68.772 12.3 52.974c-1.736-13.653 4.263-26.842 15.652-34.42a3.197 3.197 0 0 1 1.776-.551c.546 0 1.094.147 1.598.44a3.443 3.443 0 0 1 1.693 3.242 38.733 38.733 0 0 0 .194 7.394c2.125 17.406 16.3 31.584 33.708 33.71 2.458.301 4.94.364 7.395.196a3.449 3.449 0 0 1 3.244 1.692c.623 1.071.58 2.334-.112 3.376Z" fill="#fff"/><path d="M47.715 78c-1.3 0-2.624-.084-3.932-.25-13.126-1.67-23.863-12.407-25.531-25.532l-2.976.378c1.839 14.46 13.668 26.29 28.13 28.131 1.432.18 2.88.273 4.309.273 10.095 0 19.467-4.555 25.707-12.5l-2.358-1.853C65.394 73.862 56.884 78 47.714 78Z" fill="#fff"/><path d="M44.16 74.775a28.33 28.33 0 0 0 3.554.225c3.627 0 7.141-.711 10.447-2.112l-1.171-2.763c-3.888 1.65-8.154 2.223-12.452 1.672-10.455-1.33-19.008-9.883-20.337-20.338l-2.976.378C22.724 63.628 32.37 73.275 44.16 74.775Zm20.547-39.498.45 1.563a4.282 4.282 0 0 0 2.928 2.928l1.563.45c1.037.298 1.037 1.767 0 2.065l-1.563.45a4.282 4.282 0 0 0-2.928 2.928l-.45 1.563c-.298 1.037-1.767 1.037-2.065 0l-.45-1.563a4.282 4.282 0 0 0-2.928-2.928l-1.563-.45c-1.037-.298-1.037-1.767 0-2.065l1.563-.45a4.282 4.282 0 0 0 2.928-2.928l.45-1.563c.298-1.037 1.767-1.037 2.065 0ZM52.248 16.932l.25.869c.227.786.84 1.399 1.626 1.626l.869.25c.576.166.576.981 0 1.148l-.869.25c-.786.227-1.4.84-1.626 1.626l-.25.869c-.167.575-.981.575-1.148 0l-.25-.869a2.376 2.376 0 0 0-1.626-1.626l-.869-.25c-.576-.167-.576-.982 0-1.148l.869-.25c.786-.227 1.4-.84 1.626-1.627l.25-.868c.167-.576.981-.576 1.148 0ZM80.011 9.95l.551 1.909a5.23 5.23 0 0 0 3.579 3.579l1.91.55c1.266.365 1.266 2.16 0 2.525l-1.91.55a5.23 5.23 0 0 0-3.579 3.58l-.55 1.909c-.365 1.266-2.16 1.266-2.525 0l-.55-1.91a5.23 5.23 0 0 0-3.58-3.578l-1.909-.551c-1.266-.365-1.266-2.16 0-2.525l1.91-.55a5.23 5.23 0 0 0 3.578-3.579l.551-1.91c.366-1.265 2.16-1.265 2.525 0Z" fill="#fff"/></svg>