<svg width="127" height="60" fill="none" xmlns="http://www.w3.org/2000/svg"><path d="M57.692 54.23h-38.61l-2.662 5.68h46.775l-5.503-5.68Z" fill="#E62B32"/><path d="M35.237 2.84 32.929 0 0 59.911h3.462l31.775-57.07Z" fill="#1A1A18"/><path d="m36.568 17.041-3.905-4.881-22.81 40.473h7.01l19.705-35.592Zm18.284 9.142L36.657 5.148 33.55 10.74l12.693 15.443h8.61ZM8.61 59.911H6.39l2.93-5.592h2.307L8.61 59.911Zm4.437 0h-2.219l2.93-5.592h2.307l-3.018 5.592Z" fill="#E62B32"/><path d="M34.976 40.66c-.667 0-1.264-.104-1.79-.31a3.45 3.45 0 0 1-1.335-.945c-.365-.423-.638-.947-.82-1.572l1.466-.367c.166.53.458.961.876 1.293.418.331.921.495 1.51.49.41-.008.797-.089 1.161-.242.369-.153.67-.39.901-.708.187-.236.323-.489.41-.758.087-.273.147-.555.18-.845h-3.168v-1.404h3.18a3.495 3.495 0 0 0-.434-1.33 2.363 2.363 0 0 0-.901-.894c-.373-.216-.816-.32-1.33-.311-.612.004-1.13.174-1.553.51-.422.335-.71.788-.863 1.36l-1.498-.211c.224-.978.684-1.734 1.38-2.268.695-.538 1.571-.808 2.628-.808.865 0 1.609.197 2.23.59a3.82 3.82 0 0 1 1.442 1.635c.34.7.511 1.512.515 2.435.005.87-.16 1.657-.49 2.361a4.004 4.004 0 0 1-1.442 1.678c-.625.414-1.377.62-2.255.62Zm6.054-.186v-8.947h3.548c.604 0 1.1.122 1.484.366.39.24.678.55.864.926.19.377.286.766.286 1.168 0 .493-.118.911-.354 1.255a1.7 1.7 0 0 1-.95.696v-.31c.563.128.99.395 1.28.8.293.407.44.869.44 1.386 0 .53-.101.994-.304 1.392a2.186 2.186 0 0 1-.907.932c-.398.224-.89.336-1.479.336H41.03Zm1.516-1.41h2.206c.26 0 .495-.053.702-.156.207-.108.368-.257.484-.447.12-.195.18-.425.18-.69 0-.24-.051-.456-.155-.646a1.137 1.137 0 0 0-.453-.454 1.395 1.395 0 0 0-.715-.174h-2.249v2.566Zm0-3.965h2.013a1.3 1.3 0 0 0 .578-.124.959.959 0 0 0 .404-.367c.099-.161.149-.36.149-.596 0-.31-.1-.57-.298-.777-.2-.207-.477-.31-.833-.31h-2.013v2.174Zm6.323 5.375 2.82-8.947h2.194l2.82 8.947h-1.54l-2.56-8.028h.336l-2.529 8.028h-1.54Zm1.572-1.939v-1.398h4.697v1.398h-4.697Zm8.007 1.939v-8.947h1.498v4.15l3.572-4.15h1.84l-3.847 4.386 4.107 4.56h-1.901l-3.771-4.175v4.175h-1.498Zm9.848 0 1.18-2.411-3.088-6.536h1.69l2.18 4.958 2.25-4.958h1.597l-4.213 8.947h-1.596Zm5.857 0 2.82-8.947h2.194l2.82 8.947h-1.54l-2.56-8.028h.336l-2.529 8.028h-1.54Zm1.572-1.939v-1.398h4.697v1.398h-4.697Zm9.417 1.939V32.93h-2.895v-1.404h7.287v1.404H86.64v7.543h-1.497Zm9.79.186c-.894 0-1.66-.195-2.298-.584a3.903 3.903 0 0 1-1.472-1.64c-.34-.7-.51-1.512-.51-2.436 0-.923.17-1.736.51-2.435.343-.7.834-1.245 1.472-1.634.638-.394 1.404-.59 2.299-.59s1.66.196 2.299.59a3.802 3.802 0 0 1 1.472 1.634c.344.7.516 1.512.516 2.435 0 .924-.172 1.736-.516 2.436-.34.7-.83 1.246-1.472 1.64-.638.39-1.404.584-2.3.584Zm0-1.41c.602.004 1.1-.129 1.498-.398.402-.27.702-.648.901-1.137.203-.489.304-1.06.304-1.715 0-.654-.1-1.222-.304-1.702a2.431 2.431 0 0 0-.9-1.131c-.398-.27-.897-.408-1.498-.416-.6-.004-1.1.128-1.498.397-.397.27-.697.649-.9 1.137-.2.489-.299 1.06-.299 1.715s.1 1.224.299 1.709c.199.48.497.855.894 1.124.402.27.903.408 1.504.416Zm6.146 1.224v-8.947h3.697c.087 0 .198.004.335.012.137.004.263.017.379.037.518.08.945.251 1.28.516.34.265.59.6.752 1.007.165.401.248.849.248 1.342 0 .488-.083.936-.248 1.342a2.422 2.422 0 0 1-.758 1c-.336.265-.76.437-1.274.516a5.685 5.685 0 0 1-.714.05h-2.2v3.125h-1.497Zm1.497-4.524h2.138c.082 0 .176-.004.279-.012a1.43 1.43 0 0 0 .286-.05 1.13 1.13 0 0 0 .584-.329 1.33 1.33 0 0 0 .304-.534c.062-.2.094-.394.094-.584 0-.19-.032-.386-.094-.584a1.325 1.325 0 0 0-.304-.54 1.127 1.127 0 0 0-.584-.33 1.21 1.21 0 0 0-.286-.044 3.475 3.475 0 0 0-.279-.012h-2.138v3.02Zm9.921 4.511v-1.305l3.827-3.41c.298-.266.505-.516.621-.752.116-.236.174-.464.174-.684 0-.298-.064-.563-.192-.795a1.45 1.45 0 0 0-1.311-.764 1.57 1.57 0 0 0-.827.217c-.236.14-.42.33-.553.565a1.45 1.45 0 0 0-.186.765h-1.541c0-.597.133-1.117.398-1.56a2.764 2.764 0 0 1 1.106-1.031c.472-.245 1.017-.367 1.634-.367.571 0 1.085.129 1.541.386.455.252.814.604 1.075 1.056.26.447.391.963.391 1.547 0 .426-.058.785-.174 1.075a2.52 2.52 0 0 1-.522.801 12.13 12.13 0 0 1-.851.814l-2.715 2.404-.137-.372h4.399v1.41h-6.157Zm11.745.013v-1.48h-3.964v-1.397l2.864-6.07h1.708l-2.864 6.07h2.256v-2.33h1.516v2.33h.838v1.398h-.838v1.479h-1.516Zm-90.426 8.955c-.383 0-.712-.084-.985-.25a1.672 1.672 0 0 1-.63-.704 2.364 2.364 0 0 1-.22-1.043c0-.396.073-.744.22-1.044.146-.3.357-.534.63-.7.273-.17.602-.253.985-.253.442 0 .81.11 1.105.332.295.22.502.518.62.892l-.646.179a1.127 1.127 0 0 0-.381-.586c-.18-.142-.412-.213-.698-.213-.257 0-.472.058-.644.173-.17.115-.3.278-.386.487a1.953 1.953 0 0 0-.13.733c0 .28.042.525.127.734.087.208.217.37.389.485.172.115.387.173.644.173.286 0 .519-.07.698-.213.18-.142.306-.337.38-.586l.648.179a1.751 1.751 0 0 1-.62.895c-.295.22-.664.33-1.106.33Zm2.206-.08 1.21-3.834h.94l1.208 3.834h-.66l-1.097-3.44h.143l-1.083 3.44h-.66Zm.674-.831v-.6h2.013v.6h-2.013Zm3.432.83v-3.834h.641v1.614h1.816v-1.614h.64v3.835h-.64v-1.62h-1.816v1.62h-.641Zm4.11 0v-3.834h.641v1.78l1.531-1.78h.788l-1.648 1.88 1.76 1.955h-.815l-1.616-1.79v1.79h-.642Zm4.635 0v-3.232H47.63v-.602h3.123v.602h-1.24v3.233h-.642Zm2.521-1.666v-.503h1.598v.503h-1.598Zm2.556 1.667v-3.834h3.108v3.834h-.642v-3.233H54.59v3.233h-.642Zm4.12 0v-3.834h2.476v.601h-1.834v.946h1.515v.601H58.71v1.084h1.834v.602H58.07Zm4.303 0v-3.233H61.13v-.602h3.123v.602h-1.24v3.233h-.642Zm2.574 0v-3.834h2.477v.601h-1.835v.946h1.515v.601h-1.515v1.084h1.835v.602h-2.477Zm3.382 0v-3.834h1.584a2.424 2.424 0 0 1 .306.02c.222.035.405.108.549.222.145.113.253.257.322.431.071.172.106.364.106.575 0 .21-.035.401-.106.575-.071.173-.18.316-.325.43a1.141 1.141 0 0 1-.546.22 2.027 2.027 0 0 1-.306.021h-.943v1.34h-.641Zm.641-1.939h.916a1.8 1.8 0 0 0 .12-.005.637.637 0 0 0 .123-.021.483.483 0 0 0 .25-.141.57.57 0 0 0 .13-.23.838.838 0 0 0 .04-.25.837.837 0 0 0-.04-.25.568.568 0 0 0-.13-.232.483.483 0 0 0-.25-.14.516.516 0 0 0-.123-.02 1.498 1.498 0 0 0-.12-.005h-.916v1.294Zm3.026 1.939v-3.834h2.564v.601h-1.922v.826h.942a2.4 2.4 0 0 1 .142.005c.06.002.115.005.165.01.215.026.394.094.538.206.145.112.254.253.327.423.075.17.112.357.112.56 0 .202-.036.389-.11.561a1.04 1.04 0 0 1-.327.423c-.144.11-.324.178-.54.203-.05.005-.104.01-.163.013a4.865 4.865 0 0 1-.144.003h-1.584Zm.642-.602h.916a1.54 1.54 0 0 0 .242-.021c.16-.034.27-.109.33-.224a.751.751 0 0 0 0-.714c-.06-.115-.17-.19-.33-.223a1.496 1.496 0 0 0-.242-.021h-.916v1.203Zm3.532.602.505-1.033-1.323-2.802h.724l.935 2.125.964-2.125h.684l-1.805 3.835h-.684Zm3.15 0v-3.834h1.585a2.426 2.426 0 0 1 .306.02c.222.035.405.108.549.222.145.113.253.257.322.431.07.172.106.364.106.575 0 .21-.035.401-.106.575-.071.173-.18.316-.325.43a1.141 1.141 0 0 1-.546.22 2.032 2.032 0 0 1-.306.021h-.943v1.34h-.641Zm.642-1.939h.916a1.8 1.8 0 0 0 .12-.005.635.635 0 0 0 .123-.021.482.482 0 0 0 .25-.141.569.569 0 0 0 .13-.23.838.838 0 0 0 .04-.25.837.837 0 0 0-.04-.25.567.567 0 0 0-.13-.232.482.482 0 0 0-.25-.14.514.514 0 0 0-.123-.02 1.498 1.498 0 0 0-.12-.005h-.916v1.294Zm3.026 1.939v-3.834h2.477v.601h-1.835v3.233h-.642Z" fill="#1A1A18"/></svg>