<svg width="1042" height="338" fill="none" xmlns="http://www.w3.org/2000/svg"><path d="M325 305.5H107.5l-15 32H356l-31-32Z" fill="#E62B32"/><path d="m198.5 16-13-16L0 337.5h19.5L198.5 16Z" fill="#fff"/><path d="m206 96-22-27.5-128.5 228H95L206 96Zm83 28-82.5-95L189 60.5l53 63.5h47ZM48.5 337.5H36L52.5 306h13l-17 31.5Zm25 0H61L77.5 306h13l-17 31.5Z" fill="#E62B32"/><path d="M202.67 255.5c-5.367 0-10.167-.833-14.4-2.5-4.233-1.7-7.817-4.233-10.75-7.6-2.933-3.4-5.133-7.617-6.6-12.65l11.8-2.95c1.333 4.267 3.683 7.733 7.05 10.4 3.367 2.667 7.417 3.983 12.15 3.95 3.3-.067 6.417-.717 9.35-1.95 2.967-1.233 5.383-3.133 7.25-5.7 1.5-1.9 2.6-3.933 3.3-6.1.7-2.2 1.183-4.467 1.45-6.8h-25.5v-11.3h25.6c-.533-4.067-1.7-7.633-3.5-10.7-1.8-3.1-4.217-5.5-7.25-7.2-3-1.733-6.567-2.567-10.7-2.5-4.933.033-9.1 1.4-12.5 4.1-3.4 2.7-5.717 6.35-6.95 10.95l-12.05-1.7c1.8-7.867 5.5-13.95 11.1-18.25 5.6-4.333 12.65-6.5 21.15-6.5 6.967 0 12.95 1.583 17.95 4.75 5.033 3.133 8.9 7.517 11.6 13.15 2.733 5.633 4.117 12.167 4.15 19.6.033 7-1.283 13.333-3.95 19-2.667 5.667-6.533 10.167-11.6 13.5-5.033 3.333-11.083 5-18.15 5Zm48.723-1.5v-72h28.55c4.866 0 8.85.983 11.95 2.95 3.133 1.933 5.45 4.417 6.95 7.45 1.533 3.033 2.3 6.167 2.3 9.4 0 3.967-.95 7.333-2.85 10.1-1.867 2.767-4.417 4.633-7.65 5.6V215c4.533 1.033 7.966 3.183 10.3 6.45 2.366 3.267 3.55 6.983 3.55 11.15 0 4.267-.817 8-2.45 11.2-1.634 3.2-4.067 5.7-7.3 7.5-3.2 1.8-7.167 2.7-11.9 2.7h-31.45Zm12.2-11.35h17.75c2.1 0 3.983-.417 5.65-1.25 1.666-.867 2.966-2.067 3.9-3.6.966-1.567 1.45-3.417 1.45-5.55 0-1.933-.417-3.667-1.25-5.2-.834-1.533-2.05-2.75-3.65-3.65-1.6-.933-3.517-1.4-5.75-1.4h-18.1v20.65Zm0-31.9h16.2c1.733 0 3.283-.333 4.65-1a7.722 7.722 0 0 0 3.25-2.95c.8-1.3 1.2-2.9 1.2-4.8 0-2.5-.8-4.583-2.4-6.25-1.6-1.667-3.834-2.5-6.7-2.5h-16.2v17.5ZM314.479 254l22.7-72h17.65l22.7 72h-12.4l-20.6-64.6h2.7l-20.35 64.6h-12.4Zm12.65-15.6v-11.25h37.8v11.25h-37.8Zm64.439 15.6v-72h12.05v33.4l28.75-33.4h14.8l-30.95 35.3 33.05 36.7h-15.3l-30.35-33.6V254h-12.05Zm79.246 0 9.5-19.4-24.85-52.6h13.6l17.55 39.9 18.1-39.9h12.85l-33.9 72h-12.85Zm47.141 0 22.7-72h17.65l22.7 72h-12.4l-20.6-64.6h2.7l-20.35 64.6h-12.4Zm12.65-15.6v-11.25h37.8v11.25h-37.8Zm75.783 15.6v-60.7h-23.3V182h58.65v11.3h-23.3V254h-12.05Zm78.794 1.5c-7.2 0-13.366-1.567-18.5-4.7-5.133-3.167-9.083-7.567-11.85-13.2-2.733-5.633-4.1-12.167-4.1-19.6 0-7.433 1.367-13.967 4.1-19.6 2.767-5.633 6.717-10.017 11.85-13.15 5.134-3.167 11.3-4.75 18.5-4.75 7.2 0 13.367 1.583 18.5 4.75 5.167 3.133 9.117 7.517 11.85 13.15 2.767 5.633 4.15 12.167 4.15 19.6 0 7.433-1.383 13.967-4.15 19.6-2.733 5.633-6.683 10.033-11.85 13.2-5.133 3.133-11.3 4.7-18.5 4.7Zm0-11.35c4.834.033 8.85-1.033 12.05-3.2 3.234-2.167 5.65-5.217 7.25-9.15 1.634-3.933 2.45-8.533 2.45-13.8 0-5.267-.816-9.833-2.45-13.7-1.6-3.9-4.016-6.933-7.25-9.1-3.2-2.167-7.216-3.283-12.05-3.35-4.833-.033-8.85 1.033-12.05 3.2-3.2 2.167-5.616 5.217-7.25 9.15-1.6 3.933-2.4 8.533-2.4 13.8 0 5.267.8 9.85 2.4 13.75 1.6 3.867 4 6.883 7.2 9.05 3.234 2.167 7.267 3.283 12.1 3.35Zm49.453 9.85v-72h29.75c.7 0 1.6.033 2.7.1 1.1.033 2.116.133 3.05.3 4.166.633 7.6 2.017 10.3 4.15 2.733 2.133 4.75 4.833 6.05 8.1 1.333 3.233 2 6.833 2 10.8 0 3.933-.667 7.533-2 10.8-1.334 3.233-3.367 5.917-6.1 8.05-2.7 2.133-6.117 3.517-10.25 4.15-.934.133-1.967.233-3.1.3-1.1.067-1.984.1-2.65.1h-17.7V254h-12.05Zm12.05-36.4h17.2c.666 0 1.416-.033 2.25-.1.833-.067 1.6-.2 2.3-.4 2-.5 3.566-1.383 4.7-2.65 1.166-1.267 1.983-2.7 2.45-4.3.5-1.6.75-3.167.75-4.7 0-1.533-.25-3.1-.75-4.7a10.683 10.683 0 0 0-2.45-4.35c-1.134-1.267-2.7-2.15-4.7-2.65a9.77 9.77 0 0 0-2.3-.35c-.834-.067-1.584-.1-2.25-.1h-17.2v24.3Zm112.286 37.9c-7.2 0-13.366-1.567-18.5-4.7-5.133-3.167-9.083-7.567-11.85-13.2-2.733-5.633-4.1-12.167-4.1-19.6 0-7.433 1.367-13.967 4.1-19.6 2.767-5.633 6.717-10.017 11.85-13.15 5.134-3.167 11.3-4.75 18.5-4.75 8.3 0 15.217 2.083 20.75 6.25 5.534 4.133 9.417 9.717 11.65 16.75l-12.15 3.35c-1.4-4.7-3.783-8.367-7.15-11-3.366-2.667-7.733-4-13.1-4-4.833 0-8.866 1.083-12.1 3.25-3.2 2.167-5.616 5.217-7.25 9.15-1.6 3.9-2.416 8.483-2.45 13.75 0 5.267.8 9.867 2.4 13.8 1.634 3.9 4.067 6.933 7.3 9.1 3.234 2.167 7.267 3.25 12.1 3.25 5.367 0 9.734-1.333 13.1-4 3.367-2.667 5.75-6.333 7.15-11l12.15 3.35c-2.233 7.033-6.116 12.633-11.65 16.8-5.533 4.133-12.45 6.2-20.75 6.2Zm48.379-1.5v-72h58.35v72h-12.05v-60.7H919.4V254h-12.05Zm77.363 0v-72h48.147v11.3h-36.097v15.5h17.697c.67 0 1.55.033 2.65.1 1.14.033 2.17.1 3.1.2 4.04.467 7.4 1.75 10.1 3.85 2.74 2.1 4.79 4.75 6.15 7.95 1.4 3.2 2.1 6.7 2.1 10.5s-.68 7.317-2.05 10.55c-1.36 3.2-3.41 5.85-6.15 7.95-2.7 2.067-6.08 3.333-10.15 3.8-.93.1-1.95.183-3.05.25-1.1.033-2 .05-2.7.05h-29.747Zm12.05-11.3h17.197c.67 0 1.42-.033 2.25-.1.84-.067 1.6-.167 2.3-.3 3-.633 5.07-2.033 6.2-4.2 1.14-2.167 1.7-4.4 1.7-6.7 0-2.333-.56-4.567-1.7-6.7-1.13-2.167-3.2-3.567-6.2-4.2-.7-.167-1.46-.267-2.3-.3-.83-.067-1.58-.1-2.25-.1h-17.197v22.6Z" fill="#fff"/></svg>